  0
SECTION
  2
BLOCKS
  0
ENDSEC
  0
SECTION
  2
ENTITIES
  0
LINE
  8
0
 10
3.66585
 20
840
 11
1.83292
 21
843.175
  0
LINE
  8
0
 10
1.83292
 20
843.175
 11
-1.83292
 21
843.175
  0
LINE
  8
0
 10
-1.83292
 20
843.175
 11
-3.66585
 21
840
  0
LINE
  8
0
 10
-3.66585
 20
840
 11
-1.83292
 21
836.825
  0
LINE
  8
0
 10
-1.83292
 20
836.825
 11
1.83292
 21
836.825
  0
LINE
  8
0
 10
1.83292
 20
836.825
 11
3.66585
 21
840
  0
LINE
  8
0
 10
3.66585
 20
756
 11
1.83292
 21
759.175
  0
LINE
  8
0
 10
1.83292
 20
759.175
 11
-1.83292
 21
759.175
  0
LINE
  8
0
 10
-1.83292
 20
759.175
 11
-3.66585
 21
756
  0
LINE
  8
0
 10
-3.66585
 20
756
 11
-1.83292
 21
752.825
  0
LINE
  8
0
 10
-1.83292
 20
752.825
 11
1.83292
 21
752.825
  0
LINE
  8
0
 10
1.83292
 20
752.825
 11
3.66585
 21
756
  0
LINE
  8
0
 10
3.66585
 20
672
 11
1.83292
 21
675.175
  0
LINE
  8
0
 10
1.83292
 20
675.175
 11
-1.83292
 21
675.175
  0
LINE
  8
0
 10
-1.83292
 20
675.175
 11
-3.66585
 21
672
  0
LINE
  8
0
 10
-3.66585
 20
672
 11
-1.83292
 21
668.825
  0
LINE
  8
0
 10
-1.83292
 20
668.825
 11
1.83292
 21
668.825
  0
LINE
  8
0
 10
1.83292
 20
668.825
 11
3.66585
 21
672
  0
LINE
  8
0
 10
3.66585
 20
588
 11
1.83292
 21
591.175
  0
LINE
  8
0
 10
1.83292
 20
591.175
 11
-1.83292
 21
591.175
  0
LINE
  8
0
 10
-1.83292
 20
591.175
 11
-3.66585
 21
588
  0
LINE
  8
0
 10
-3.66585
 20
588
 11
-1.83292
 21
584.825
  0
LINE
  8
0
 10
-1.83292
 20
584.825
 11
1.83292
 21
584.825
  0
LINE
  8
0
 10
1.83292
 20
584.825
 11
3.66585
 21
588
  0
LINE
  8
0
 10
3.66585
 20
504
 11
1.83292
 21
507.175
  0
LINE
  8
0
 10
1.83292
 20
507.175
 11
-1.83292
 21
507.175
  0
LINE
  8
0
 10
-1.83292
 20
507.175
 11
-3.66585
 21
504
  0
LINE
  8
0
 10
-3.66585
 20
504
 11
-1.83292
 21
500.825
  0
LINE
  8
0
 10
-1.83292
 20
500.825
 11
1.83292
 21
500.825
  0
LINE
  8
0
 10
1.83292
 20
500.825
 11
3.66585
 21
504
  0
ENDSEC
  0
SECTION
  2
OBJECTS
  0
DICTIONARY
  0
ENDSEC
  0
EOF
