  0
SECTION
  2
BLOCKS
  0
ENDSEC
  0
SECTION
  2
ENTITIES
  0
LINE
  8
0
 10
28.9369
 20
407.589
 11
29.5451
 21
407.745
  0
LINE
  8
0
 10
29.5451
 20
407.745
 11
30.1289
 21
407.976
  0
LINE
  8
0
 10
30.1289
 20
407.976
 11
30.6791
 21
408.278
  0
LINE
  8
0
 10
30.6791
 20
408.278
 11
31.1871
 21
408.647
  0
LINE
  8
0
 10
31.1871
 20
408.647
 11
31.6448
 21
409.077
  0
LINE
  8
0
 10
31.6448
 20
409.077
 11
32.0451
 21
409.561
  0
LINE
  8
0
 10
32.0451
 20
409.561
 11
32.3815
 21
410.091
  0
LINE
  8
0
 10
32.3815
 20
410.091
 11
32.6489
 21
410.659
  0
LINE
  8
0
 10
32.6489
 20
410.659
 11
32.8429
 21
411.257
  0
LINE
  8
0
 10
32.8429
 20
411.257
 11
32.9606
 21
411.873
  0
LINE
  8
0
 10
32.9606
 20
411.873
 11
33
 21
412.5
  0
LINE
  8
0
 10
33
 20
412.5
 11
33
 21
427.5
  0
LINE
  8
0
 10
33
 20
427.5
 11
32.9606
 21
428.127
  0
LINE
  8
0
 10
32.9606
 20
428.127
 11
32.8429
 21
428.743
  0
LINE
  8
0
 10
32.8429
 20
428.743
 11
32.6489
 21
429.341
  0
LINE
  8
0
 10
32.6489
 20
429.341
 11
32.3815
 21
429.909
  0
LINE
  8
0
 10
32.3815
 20
429.909
 11
32.0451
 21
430.439
  0
LINE
  8
0
 10
32.0451
 20
430.439
 11
31.6448
 21
430.923
  0
LINE
  8
0
 10
31.6448
 20
430.923
 11
31.1871
 21
431.353
  0
LINE
  8
0
 10
31.1871
 20
431.353
 11
30.6791
 21
431.722
  0
LINE
  8
0
 10
30.6791
 20
431.722
 11
30.1289
 21
432.024
  0
LINE
  8
0
 10
30.1289
 20
432.024
 11
29.5451
 21
432.255
  0
LINE
  8
0
 10
29.5451
 20
432.255
 11
28.9369
 21
432.411
  0
LINE
  8
0
 10
28.9369
 20
432.411
 11
28.3139
 21
432.49
  0
LINE
  8
0
 10
28.3139
 20
432.49
 11
2.68604
 21
432.49
  0
LINE
  8
0
 10
2.68604
 20
432.49
 11
2.06308
 21
432.411
  0
LINE
  8
0
 10
2.06308
 20
432.411
 11
1.45491
 21
432.255
  0
LINE
  8
0
 10
1.45491
 20
432.255
 11
0.871094
 21
432.024
  0
LINE
  8
0
 10
0.871094
 20
432.024
 11
0.320862
 21
431.722
  0
LINE
  8
0
 10
0.320862
 20
431.722
 11
-0.187119
 21
431.353
  0
LINE
  8
0
 10
-0.187119
 20
431.353
 11
-0.644836
 21
430.923
  0
LINE
  8
0
 10
-0.644836
 20
430.923
 11
-1.04507
 21
430.439
  0
LINE
  8
0
 10
-1.04507
 20
430.439
 11
-1.38153
 21
429.909
  0
LINE
  8
0
 10
-1.38153
 20
429.909
 11
-1.64888
 21
429.341
  0
LINE
  8
0
 10
-1.64888
 20
429.341
 11
-1.84291
 21
428.743
  0
LINE
  8
0
 10
-1.84291
 20
428.743
 11
-1.96057
 21
428.127
  0
LINE
  8
0
 10
-1.96057
 20
428.127
 11
-2
 21
427.5
  0
LINE
  8
0
 10
-2
 20
427.5
 11
-2
 21
422.556
  0
LINE
  8
0
 10
-2
 20
422.556
 11
0
 21
422.556
  0
LINE
  8
0
 10
0
 20
422.556
 11
0.827347
 21
423.078
  0
LINE
  8
0
 10
0.827347
 20
423.078
 11
1.70293
 21
423.608
  0
LINE
  8
0
 10
1.70293
 20
423.608
 11
28.5
 21
423.608
  0
LINE
  8
0
 10
28.5
 20
423.608
 11
28.5
 21
416.392
  0
LINE
  8
0
 10
28.5
 20
416.392
 11
1.70293
 21
416.392
  0
LINE
  8
0
 10
1.70293
 20
416.392
 11
0.827347
 21
416.922
  0
LINE
  8
0
 10
0.827347
 20
416.922
 11
0
 21
417.444
  0
LINE
  8
0
 10
0
 20
417.444
 11
-2
 21
417.444
  0
LINE
  8
0
 10
-2
 20
417.444
 11
-2
 21
412.5
  0
LINE
  8
0
 10
-2
 20
412.5
 11
-1.96057
 21
411.873
  0
LINE
  8
0
 10
-1.96057
 20
411.873
 11
-1.84291
 21
411.257
  0
LINE
  8
0
 10
-1.84291
 20
411.257
 11
-1.64888
 21
410.659
  0
LINE
  8
0
 10
-1.64888
 20
410.659
 11
-1.38153
 21
410.091
  0
LINE
  8
0
 10
-1.38153
 20
410.091
 11
-1.04507
 21
409.561
  0
LINE
  8
0
 10
-1.04507
 20
409.561
 11
-0.644836
 21
409.077
  0
LINE
  8
0
 10
-0.644836
 20
409.077
 11
-0.187119
 21
408.647
  0
LINE
  8
0
 10
-0.187119
 20
408.647
 11
0.320862
 21
408.278
  0
LINE
  8
0
 10
0.320862
 20
408.278
 11
0.871094
 21
407.976
  0
LINE
  8
0
 10
0.871094
 20
407.976
 11
1.45491
 21
407.745
  0
LINE
  8
0
 10
1.45491
 20
407.745
 11
2.06308
 21
407.589
  0
LINE
  8
0
 10
2.06308
 20
407.589
 11
2.68604
 21
407.51
  0
LINE
  8
0
 10
2.68604
 20
407.51
 11
28.3139
 21
407.51
  0
LINE
  8
0
 10
28.3139
 20
407.51
 11
28.9369
 21
407.589
  0
LINE
  8
0
 10
15.387
 20
425.704
 11
15.1627
 21
425.732
  0
LINE
  8
0
 10
15.1627
 20
425.732
 11
14.9438
 21
425.788
  0
LINE
  8
0
 10
14.9438
 20
425.788
 11
14.7336
 21
425.871
  0
LINE
  8
0
 10
14.7336
 20
425.871
 11
14.5355
 21
425.98
  0
LINE
  8
0
 10
14.5355
 20
425.98
 11
14.3526
 21
426.113
  0
LINE
  8
0
 10
14.3526
 20
426.113
 11
14.1879
 21
426.268
  0
LINE
  8
0
 10
14.1879
 20
426.268
 11
14.0438
 21
426.442
  0
LINE
  8
0
 10
14.0438
 20
426.442
 11
13.9226
 21
426.633
  0
LINE
  8
0
 10
13.9226
 20
426.633
 11
13.8264
 21
426.837
  0
LINE
  8
0
 10
13.8264
 20
426.837
 11
13.7565
 21
427.052
  0
LINE
  8
0
 10
13.7565
 20
427.052
 11
13.7142
 21
427.274
  0
LINE
  8
0
 10
13.7142
 20
427.274
 11
13.7
 21
427.5
  0
LINE
  8
0
 10
13.7
 20
427.5
 11
13.7142
 21
427.726
  0
LINE
  8
0
 10
13.7142
 20
427.726
 11
13.7565
 21
427.948
  0
LINE
  8
0
 10
13.7565
 20
427.948
 11
13.8264
 21
428.163
  0
LINE
  8
0
 10
13.8264
 20
428.163
 11
13.9226
 21
428.367
  0
LINE
  8
0
 10
13.9226
 20
428.367
 11
14.0438
 21
428.558
  0
LINE
  8
0
 10
14.0438
 20
428.558
 11
14.1879
 21
428.732
  0
LINE
  8
0
 10
14.1879
 20
428.732
 11
14.3526
 21
428.887
  0
LINE
  8
0
 10
14.3526
 20
428.887
 11
14.5355
 21
429.02
  0
LINE
  8
0
 10
14.5355
 20
429.02
 11
14.7336
 21
429.129
  0
LINE
  8
0
 10
14.7336
 20
429.129
 11
14.9438
 21
429.212
  0
LINE
  8
0
 10
14.9438
 20
429.212
 11
15.1627
 21
429.268
  0
LINE
  8
0
 10
15.1627
 20
429.268
 11
15.387
 21
429.296
  0
LINE
  8
0
 10
15.387
 20
429.296
 11
15.613
 21
429.296
  0
LINE
  8
0
 10
15.613
 20
429.296
 11
15.8373
 21
429.268
  0
LINE
  8
0
 10
15.8373
 20
429.268
 11
16.0562
 21
429.212
  0
LINE
  8
0
 10
16.0562
 20
429.212
 11
16.2664
 21
429.129
  0
LINE
  8
0
 10
16.2664
 20
429.129
 11
16.4645
 21
429.02
  0
LINE
  8
0
 10
16.4645
 20
429.02
 11
16.6474
 21
428.887
  0
LINE
  8
0
 10
16.6474
 20
428.887
 11
16.8121
 21
428.732
  0
LINE
  8
0
 10
16.8121
 20
428.732
 11
16.9562
 21
428.558
  0
LINE
  8
0
 10
16.9562
 20
428.558
 11
17.0773
 21
428.367
  0
LINE
  8
0
 10
17.0773
 20
428.367
 11
17.1736
 21
428.163
  0
LINE
  8
0
 10
17.1736
 20
428.163
 11
17.2434
 21
427.948
  0
LINE
  8
0
 10
17.2434
 20
427.948
 11
17.2858
 21
427.726
  0
LINE
  8
0
 10
17.2858
 20
427.726
 11
17.3
 21
427.5
  0
LINE
  8
0
 10
17.3
 20
427.5
 11
17.2858
 21
427.274
  0
LINE
  8
0
 10
17.2858
 20
427.274
 11
17.2434
 21
427.052
  0
LINE
  8
0
 10
17.2434
 20
427.052
 11
17.1736
 21
426.837
  0
LINE
  8
0
 10
17.1736
 20
426.837
 11
17.0773
 21
426.633
  0
LINE
  8
0
 10
17.0773
 20
426.633
 11
16.9562
 21
426.442
  0
LINE
  8
0
 10
16.9562
 20
426.442
 11
16.8121
 21
426.268
  0
LINE
  8
0
 10
16.8121
 20
426.268
 11
16.6474
 21
426.113
  0
LINE
  8
0
 10
16.6474
 20
426.113
 11
16.4645
 21
425.98
  0
LINE
  8
0
 10
16.4645
 20
425.98
 11
16.2664
 21
425.871
  0
LINE
  8
0
 10
16.2664
 20
425.871
 11
16.0562
 21
425.788
  0
LINE
  8
0
 10
16.0562
 20
425.788
 11
15.8373
 21
425.732
  0
LINE
  8
0
 10
15.8373
 20
425.732
 11
15.613
 21
425.704
  0
LINE
  8
0
 10
15.613
 20
425.704
 11
15.387
 21
425.704
  0
LINE
  8
0
 10
15.387
 20
410.704
 11
15.1627
 21
410.732
  0
LINE
  8
0
 10
15.1627
 20
410.732
 11
14.9438
 21
410.788
  0
LINE
  8
0
 10
14.9438
 20
410.788
 11
14.7336
 21
410.871
  0
LINE
  8
0
 10
14.7336
 20
410.871
 11
14.5355
 21
410.98
  0
LINE
  8
0
 10
14.5355
 20
410.98
 11
14.3526
 21
411.113
  0
LINE
  8
0
 10
14.3526
 20
411.113
 11
14.1879
 21
411.268
  0
LINE
  8
0
 10
14.1879
 20
411.268
 11
14.0438
 21
411.442
  0
LINE
  8
0
 10
14.0438
 20
411.442
 11
13.9226
 21
411.633
  0
LINE
  8
0
 10
13.9226
 20
411.633
 11
13.8264
 21
411.837
  0
LINE
  8
0
 10
13.8264
 20
411.837
 11
13.7565
 21
412.052
  0
LINE
  8
0
 10
13.7565
 20
412.052
 11
13.7142
 21
412.274
  0
LINE
  8
0
 10
13.7142
 20
412.274
 11
13.7
 21
412.5
  0
LINE
  8
0
 10
13.7
 20
412.5
 11
13.7142
 21
412.726
  0
LINE
  8
0
 10
13.7142
 20
412.726
 11
13.7565
 21
412.948
  0
LINE
  8
0
 10
13.7565
 20
412.948
 11
13.8264
 21
413.163
  0
LINE
  8
0
 10
13.8264
 20
413.163
 11
13.9226
 21
413.367
  0
LINE
  8
0
 10
13.9226
 20
413.367
 11
14.0438
 21
413.558
  0
LINE
  8
0
 10
14.0438
 20
413.558
 11
14.1879
 21
413.732
  0
LINE
  8
0
 10
14.1879
 20
413.732
 11
14.3526
 21
413.887
  0
LINE
  8
0
 10
14.3526
 20
413.887
 11
14.5355
 21
414.02
  0
LINE
  8
0
 10
14.5355
 20
414.02
 11
14.7336
 21
414.129
  0
LINE
  8
0
 10
14.7336
 20
414.129
 11
14.9438
 21
414.212
  0
LINE
  8
0
 10
14.9438
 20
414.212
 11
15.1627
 21
414.268
  0
LINE
  8
0
 10
15.1627
 20
414.268
 11
15.387
 21
414.296
  0
LINE
  8
0
 10
15.387
 20
414.296
 11
15.613
 21
414.296
  0
LINE
  8
0
 10
15.613
 20
414.296
 11
15.8373
 21
414.268
  0
LINE
  8
0
 10
15.8373
 20
414.268
 11
16.0562
 21
414.212
  0
LINE
  8
0
 10
16.0562
 20
414.212
 11
16.2664
 21
414.129
  0
LINE
  8
0
 10
16.2664
 20
414.129
 11
16.4645
 21
414.02
  0
LINE
  8
0
 10
16.4645
 20
414.02
 11
16.6474
 21
413.887
  0
LINE
  8
0
 10
16.6474
 20
413.887
 11
16.8121
 21
413.732
  0
LINE
  8
0
 10
16.8121
 20
413.732
 11
16.9562
 21
413.558
  0
LINE
  8
0
 10
16.9562
 20
413.558
 11
17.0773
 21
413.367
  0
LINE
  8
0
 10
17.0773
 20
413.367
 11
17.1736
 21
413.163
  0
LINE
  8
0
 10
17.1736
 20
413.163
 11
17.2434
 21
412.948
  0
LINE
  8
0
 10
17.2434
 20
412.948
 11
17.2858
 21
412.726
  0
LINE
  8
0
 10
17.2858
 20
412.726
 11
17.3
 21
412.5
  0
LINE
  8
0
 10
17.3
 20
412.5
 11
17.2858
 21
412.274
  0
LINE
  8
0
 10
17.2858
 20
412.274
 11
17.2434
 21
412.052
  0
LINE
  8
0
 10
17.2434
 20
412.052
 11
17.1736
 21
411.837
  0
LINE
  8
0
 10
17.1736
 20
411.837
 11
17.0773
 21
411.633
  0
LINE
  8
0
 10
17.0773
 20
411.633
 11
16.9562
 21
411.442
  0
LINE
  8
0
 10
16.9562
 20
411.442
 11
16.8121
 21
411.268
  0
LINE
  8
0
 10
16.8121
 20
411.268
 11
16.6474
 21
411.113
  0
LINE
  8
0
 10
16.6474
 20
411.113
 11
16.4645
 21
410.98
  0
LINE
  8
0
 10
16.4645
 20
410.98
 11
16.2664
 21
410.871
  0
LINE
  8
0
 10
16.2664
 20
410.871
 11
16.0562
 21
410.788
  0
LINE
  8
0
 10
16.0562
 20
410.788
 11
15.8373
 21
410.732
  0
LINE
  8
0
 10
15.8373
 20
410.732
 11
15.613
 21
410.704
  0
LINE
  8
0
 10
15.613
 20
410.704
 11
15.387
 21
410.704
  0
LINE
  8
0
 10
28.9369
 20
323.589
 11
29.5451
 21
323.745
  0
LINE
  8
0
 10
29.5451
 20
323.745
 11
30.1289
 21
323.976
  0
LINE
  8
0
 10
30.1289
 20
323.976
 11
30.6791
 21
324.278
  0
LINE
  8
0
 10
30.6791
 20
324.278
 11
31.1871
 21
324.647
  0
LINE
  8
0
 10
31.1871
 20
324.647
 11
31.6448
 21
325.077
  0
LINE
  8
0
 10
31.6448
 20
325.077
 11
32.0451
 21
325.561
  0
LINE
  8
0
 10
32.0451
 20
325.561
 11
32.3815
 21
326.091
  0
LINE
  8
0
 10
32.3815
 20
326.091
 11
32.6489
 21
326.659
  0
LINE
  8
0
 10
32.6489
 20
326.659
 11
32.8429
 21
327.257
  0
LINE
  8
0
 10
32.8429
 20
327.257
 11
32.9606
 21
327.873
  0
LINE
  8
0
 10
32.9606
 20
327.873
 11
33
 21
328.5
  0
LINE
  8
0
 10
33
 20
328.5
 11
33
 21
343.5
  0
LINE
  8
0
 10
33
 20
343.5
 11
32.9606
 21
344.127
  0
LINE
  8
0
 10
32.9606
 20
344.127
 11
32.8429
 21
344.743
  0
LINE
  8
0
 10
32.8429
 20
344.743
 11
32.6489
 21
345.341
  0
LINE
  8
0
 10
32.6489
 20
345.341
 11
32.3815
 21
345.909
  0
LINE
  8
0
 10
32.3815
 20
345.909
 11
32.0451
 21
346.439
  0
LINE
  8
0
 10
32.0451
 20
346.439
 11
31.6448
 21
346.923
  0
LINE
  8
0
 10
31.6448
 20
346.923
 11
31.1871
 21
347.353
  0
LINE
  8
0
 10
31.1871
 20
347.353
 11
30.6791
 21
347.722
  0
LINE
  8
0
 10
30.6791
 20
347.722
 11
30.1289
 21
348.024
  0
LINE
  8
0
 10
30.1289
 20
348.024
 11
29.5451
 21
348.255
  0
LINE
  8
0
 10
29.5451
 20
348.255
 11
28.9369
 21
348.411
  0
LINE
  8
0
 10
28.9369
 20
348.411
 11
28.3139
 21
348.49
  0
LINE
  8
0
 10
28.3139
 20
348.49
 11
2.68604
 21
348.49
  0
LINE
  8
0
 10
2.68604
 20
348.49
 11
2.06308
 21
348.411
  0
LINE
  8
0
 10
2.06308
 20
348.411
 11
1.45491
 21
348.255
  0
LINE
  8
0
 10
1.45491
 20
348.255
 11
0.871094
 21
348.024
  0
LINE
  8
0
 10
0.871094
 20
348.024
 11
0.320862
 21
347.722
  0
LINE
  8
0
 10
0.320862
 20
347.722
 11
-0.187119
 21
347.353
  0
LINE
  8
0
 10
-0.187119
 20
347.353
 11
-0.644836
 21
346.923
  0
LINE
  8
0
 10
-0.644836
 20
346.923
 11
-1.04507
 21
346.439
  0
LINE
  8
0
 10
-1.04507
 20
346.439
 11
-1.38153
 21
345.909
  0
LINE
  8
0
 10
-1.38153
 20
345.909
 11
-1.64888
 21
345.341
  0
LINE
  8
0
 10
-1.64888
 20
345.341
 11
-1.84291
 21
344.743
  0
LINE
  8
0
 10
-1.84291
 20
344.743
 11
-1.96057
 21
344.127
  0
LINE
  8
0
 10
-1.96057
 20
344.127
 11
-2
 21
343.5
  0
LINE
  8
0
 10
-2
 20
343.5
 11
-2
 21
328.5
  0
LINE
  8
0
 10
-2
 20
328.5
 11
-1.96057
 21
327.873
  0
LINE
  8
0
 10
-1.96057
 20
327.873
 11
-1.84291
 21
327.257
  0
LINE
  8
0
 10
-1.84291
 20
327.257
 11
-1.64888
 21
326.659
  0
LINE
  8
0
 10
-1.64888
 20
326.659
 11
-1.38153
 21
326.091
  0
LINE
  8
0
 10
-1.38153
 20
326.091
 11
-1.04507
 21
325.561
  0
LINE
  8
0
 10
-1.04507
 20
325.561
 11
-0.644836
 21
325.077
  0
LINE
  8
0
 10
-0.644836
 20
325.077
 11
-0.187119
 21
324.647
  0
LINE
  8
0
 10
-0.187119
 20
324.647
 11
0.320862
 21
324.278
  0
LINE
  8
0
 10
0.320862
 20
324.278
 11
0.871094
 21
323.976
  0
LINE
  8
0
 10
0.871094
 20
323.976
 11
1.45491
 21
323.745
  0
LINE
  8
0
 10
1.45491
 20
323.745
 11
2.06308
 21
323.589
  0
LINE
  8
0
 10
2.06308
 20
323.589
 11
2.68604
 21
323.51
  0
LINE
  8
0
 10
2.68604
 20
323.51
 11
28.3139
 21
323.51
  0
LINE
  8
0
 10
28.3139
 20
323.51
 11
28.9369
 21
323.589
  0
LINE
  8
0
 10
13.9133
 20
340.752
 11
12.3265
 21
343.5
  0
LINE
  8
0
 10
12.3265
 20
343.5
 11
13.9133
 21
346.248
  0
LINE
  8
0
 10
13.9133
 20
346.248
 11
17.0867
 21
346.248
  0
LINE
  8
0
 10
17.0867
 20
346.248
 11
18.6735
 21
343.5
  0
LINE
  8
0
 10
18.6735
 20
343.5
 11
17.0867
 21
340.752
  0
LINE
  8
0
 10
17.0867
 20
340.752
 11
13.9133
 21
340.752
  0
LINE
  8
0
 10
2
 20
335.28
 11
2
 21
336.72
  0
LINE
  8
0
 10
2
 20
336.72
 11
28.5
 21
336.72
  0
LINE
  8
0
 10
28.5
 20
336.72
 11
28.5
 21
335.28
  0
LINE
  8
0
 10
28.5
 20
335.28
 11
2
 21
335.28
  0
LINE
  8
0
 10
15.3859
 20
326.686
 11
15.1594
 21
326.715
  0
LINE
  8
0
 10
15.1594
 20
326.715
 11
14.9383
 21
326.771
  0
LINE
  8
0
 10
14.9383
 20
326.771
 11
14.7261
 21
326.855
  0
LINE
  8
0
 10
14.7261
 20
326.855
 11
14.526
 21
326.965
  0
LINE
  8
0
 10
14.526
 20
326.965
 11
14.3414
 21
327.099
  0
LINE
  8
0
 10
14.3414
 20
327.099
 11
14.175
 21
327.256
  0
LINE
  8
0
 10
14.175
 20
327.256
 11
14.0295
 21
327.432
  0
LINE
  8
0
 10
14.0295
 20
327.432
 11
13.9072
 21
327.624
  0
LINE
  8
0
 10
13.9072
 20
327.624
 11
13.81
 21
327.831
  0
LINE
  8
0
 10
13.81
 20
327.831
 11
13.7395
 21
328.048
  0
LINE
  8
0
 10
13.7395
 20
328.048
 11
13.6967
 21
328.272
  0
LINE
  8
0
 10
13.6967
 20
328.272
 11
13.6823
 21
328.5
  0
LINE
  8
0
 10
13.6823
 20
328.5
 11
13.6967
 21
328.728
  0
LINE
  8
0
 10
13.6967
 20
328.728
 11
13.7395
 21
328.952
  0
LINE
  8
0
 10
13.7395
 20
328.952
 11
13.81
 21
329.169
  0
LINE
  8
0
 10
13.81
 20
329.169
 11
13.9072
 21
329.376
  0
LINE
  8
0
 10
13.9072
 20
329.376
 11
14.0295
 21
329.568
  0
LINE
  8
0
 10
14.0295
 20
329.568
 11
14.175
 21
329.744
  0
LINE
  8
0
 10
14.175
 20
329.744
 11
14.3414
 21
329.901
  0
LINE
  8
0
 10
14.3414
 20
329.901
 11
14.526
 21
330.035
  0
LINE
  8
0
 10
14.526
 20
330.035
 11
14.7261
 21
330.145
  0
LINE
  8
0
 10
14.7261
 20
330.145
 11
14.9383
 21
330.229
  0
LINE
  8
0
 10
14.9383
 20
330.229
 11
15.1594
 21
330.285
  0
LINE
  8
0
 10
15.1594
 20
330.285
 11
15.3859
 21
330.314
  0
LINE
  8
0
 10
15.3859
 20
330.314
 11
15.6141
 21
330.314
  0
LINE
  8
0
 10
15.6141
 20
330.314
 11
15.8406
 21
330.285
  0
LINE
  8
0
 10
15.8406
 20
330.285
 11
16.0617
 21
330.229
  0
LINE
  8
0
 10
16.0617
 20
330.229
 11
16.2739
 21
330.145
  0
LINE
  8
0
 10
16.2739
 20
330.145
 11
16.4739
 21
330.035
  0
LINE
  8
0
 10
16.4739
 20
330.035
 11
16.6586
 21
329.901
  0
LINE
  8
0
 10
16.6586
 20
329.901
 11
16.825
 21
329.744
  0
LINE
  8
0
 10
16.825
 20
329.744
 11
16.9705
 21
329.568
  0
LINE
  8
0
 10
16.9705
 20
329.568
 11
17.0928
 21
329.376
  0
LINE
  8
0
 10
17.0928
 20
329.376
 11
17.19
 21
329.169
  0
LINE
  8
0
 10
17.19
 20
329.169
 11
17.2605
 21
328.952
  0
LINE
  8
0
 10
17.2605
 20
328.952
 11
17.3033
 21
328.728
  0
LINE
  8
0
 10
17.3033
 20
328.728
 11
17.3176
 21
328.5
  0
LINE
  8
0
 10
17.3176
 20
328.5
 11
17.3033
 21
328.272
  0
LINE
  8
0
 10
17.3033
 20
328.272
 11
17.2605
 21
328.048
  0
LINE
  8
0
 10
17.2605
 20
328.048
 11
17.19
 21
327.831
  0
LINE
  8
0
 10
17.19
 20
327.831
 11
17.0928
 21
327.624
  0
LINE
  8
0
 10
17.0928
 20
327.624
 11
16.9705
 21
327.432
  0
LINE
  8
0
 10
16.9705
 20
327.432
 11
16.825
 21
327.256
  0
LINE
  8
0
 10
16.825
 20
327.256
 11
16.6586
 21
327.099
  0
LINE
  8
0
 10
16.6586
 20
327.099
 11
16.4739
 21
326.965
  0
LINE
  8
0
 10
16.4739
 20
326.965
 11
16.2739
 21
326.855
  0
LINE
  8
0
 10
16.2739
 20
326.855
 11
16.0617
 21
326.771
  0
LINE
  8
0
 10
16.0617
 20
326.771
 11
15.8406
 21
326.715
  0
LINE
  8
0
 10
15.8406
 20
326.715
 11
15.6141
 21
326.686
  0
LINE
  8
0
 10
15.6141
 20
326.686
 11
15.3859
 21
326.686
  0
ENDSEC
  0
SECTION
  2
OBJECTS
  0
DICTIONARY
  0
ENDSEC
  0
EOF
