  0
SECTION
  2
BLOCKS
  0
ENDSEC
  0
SECTION
  2
ENTITIES
  0
LINE
  8
0
 10
52.2486
 20
828.213
 11
53.7082
 21
828.587
  0
LINE
  8
0
 10
53.7082
 20
828.587
 11
55.1093
 21
829.142
  0
LINE
  8
0
 10
55.1093
 20
829.142
 11
56.4299
 21
829.868
  0
LINE
  8
0
 10
56.4299
 20
829.868
 11
57.6491
 21
830.754
  0
LINE
  8
0
 10
57.6491
 20
830.754
 11
58.7476
 21
831.785
  0
LINE
  8
0
 10
58.7476
 20
831.785
 11
59.7082
 21
832.947
  0
LINE
  8
0
 10
59.7082
 20
832.947
 11
60.5157
 21
834.219
  0
LINE
  8
0
 10
60.5157
 20
834.219
 11
61.1573
 21
835.583
  0
LINE
  8
0
 10
61.1573
 20
835.583
 11
61.623
 21
837.016
  0
LINE
  8
0
 10
61.623
 20
837.016
 11
61.9054
 21
838.496
  0
LINE
  8
0
 10
61.9054
 20
838.496
 11
62
 21
840
  0
LINE
  8
0
 10
62
 20
840
 11
53.7159
 21
840
  0
LINE
  8
0
 10
53.7159
 20
840
 11
51.8329
 21
836.739
  0
LINE
  8
0
 10
51.8329
 20
836.739
 11
48.0671
 21
836.739
  0
LINE
  8
0
 10
48.0671
 20
836.739
 11
46.1841
 21
840
  0
LINE
  8
0
 10
46.1841
 20
840
 11
38
 21
840
  0
LINE
  8
0
 10
38
 20
840
 11
38.0946
 21
838.496
  0
LINE
  8
0
 10
38.0946
 20
838.496
 11
38.377
 21
837.016
  0
LINE
  8
0
 10
38.377
 20
837.016
 11
38.8427
 21
835.583
  0
LINE
  8
0
 10
38.8427
 20
835.583
 11
39.4843
 21
834.219
  0
LINE
  8
0
 10
39.4843
 20
834.219
 11
40.2918
 21
832.947
  0
LINE
  8
0
 10
40.2918
 20
832.947
 11
41.2524
 21
831.785
  0
LINE
  8
0
 10
41.2524
 20
831.785
 11
42.3509
 21
830.754
  0
LINE
  8
0
 10
42.3509
 20
830.754
 11
43.5701
 21
829.868
  0
LINE
  8
0
 10
43.5701
 20
829.868
 11
44.6995
 21
829.247
  0
LINE
  8
0
 10
44.6995
 20
829.247
 11
44.6995
 21
837
  0
LINE
  8
0
 10
44.6995
 20
837
 11
45.3005
 21
837
  0
LINE
  8
0
 10
45.3005
 20
837
 11
45.3005
 21
828.98
  0
LINE
  8
0
 10
45.3005
 20
828.98
 11
46.2918
 21
828.587
  0
LINE
  8
0
 10
46.2918
 20
828.587
 11
47.7514
 21
828.213
  0
LINE
  8
0
 10
47.7514
 20
828.213
 11
49.2465
 21
828.024
  0
LINE
  8
0
 10
49.2465
 20
828.024
 11
50.7535
 21
828.024
  0
LINE
  8
0
 10
50.7535
 20
828.024
 11
52.2486
 21
828.213
  0
LINE
  8
0
 10
2.24857
 20
828.213
 11
3.70819
 21
828.587
  0
LINE
  8
0
 10
3.70819
 20
828.587
 11
5.10934
 21
829.142
  0
LINE
  8
0
 10
5.10934
 20
829.142
 11
6.42992
 21
829.868
  0
LINE
  8
0
 10
6.42992
 20
829.868
 11
7.64908
 21
830.754
  0
LINE
  8
0
 10
7.64908
 20
830.754
 11
8.74762
 21
831.785
  0
LINE
  8
0
 10
8.74762
 20
831.785
 11
9.70819
 21
832.947
  0
LINE
  8
0
 10
9.70819
 20
832.947
 11
10.5157
 21
834.219
  0
LINE
  8
0
 10
10.5157
 20
834.219
 11
11.1573
 21
835.583
  0
LINE
  8
0
 10
11.1573
 20
835.583
 11
11.623
 21
837.016
  0
LINE
  8
0
 10
11.623
 20
837.016
 11
11.9054
 21
838.496
  0
LINE
  8
0
 10
11.9054
 20
838.496
 11
12
 21
840
  0
LINE
  8
0
 10
12
 20
840
 11
3.81584
 21
840
  0
LINE
  8
0
 10
3.81584
 20
840
 11
1.93291
 21
836.739
  0
LINE
  8
0
 10
1.93291
 20
836.739
 11
-1.83292
 21
836.739
  0
LINE
  8
0
 10
-1.83292
 20
836.739
 11
-3.71585
 21
840
  0
LINE
  8
0
 10
-3.71585
 20
840
 11
-12
 21
840
  0
LINE
  8
0
 10
-12
 20
840
 11
-11.9054
 21
838.496
  0
LINE
  8
0
 10
-11.9054
 20
838.496
 11
-11.623
 21
837.016
  0
LINE
  8
0
 10
-11.623
 20
837.016
 11
-11.1573
 21
835.583
  0
LINE
  8
0
 10
-11.1573
 20
835.583
 11
-10.5157
 21
834.219
  0
LINE
  8
0
 10
-10.5157
 20
834.219
 11
-9.70819
 21
832.947
  0
LINE
  8
0
 10
-9.70819
 20
832.947
 11
-8.74762
 21
831.785
  0
LINE
  8
0
 10
-8.74762
 20
831.785
 11
-7.64908
 21
830.754
  0
LINE
  8
0
 10
-7.64908
 20
830.754
 11
-6.42992
 21
829.868
  0
LINE
  8
0
 10
-6.42992
 20
829.868
 11
-5.30049
 21
829.247
  0
LINE
  8
0
 10
-5.30049
 20
829.247
 11
-5.30049
 21
837
  0
LINE
  8
0
 10
-5.30049
 20
837
 11
-4.69951
 21
837
  0
LINE
  8
0
 10
-4.69951
 20
837
 11
-4.69951
 21
828.98
  0
LINE
  8
0
 10
-4.69951
 20
828.98
 11
-3.70819
 21
828.587
  0
LINE
  8
0
 10
-3.70819
 20
828.587
 11
-2.24857
 21
828.213
  0
LINE
  8
0
 10
-2.24857
 20
828.213
 11
-0.753479
 21
828.024
  0
LINE
  8
0
 10
-0.753479
 20
828.024
 11
0.753479
 21
828.024
  0
LINE
  8
0
 10
0.753479
 20
828.024
 11
2.24857
 21
828.213
  0
LINE
  8
0
 10
2.13614
 20
744.802
 11
3.52278
 21
745.158
  0
LINE
  8
0
 10
3.52278
 20
745.158
 11
4.85388
 21
745.685
  0
LINE
  8
0
 10
4.85388
 20
745.685
 11
6.10841
 21
746.375
  0
LINE
  8
0
 10
6.10841
 20
746.375
 11
7.26663
 21
747.216
  0
LINE
  8
0
 10
7.26663
 20
747.216
 11
8.31024
 21
748.196
  0
LINE
  8
0
 10
8.31024
 20
748.196
 11
9.22278
 21
749.299
  0
LINE
  8
0
 10
9.22278
 20
749.299
 11
9.98988
 21
750.508
  0
LINE
  8
0
 10
9.98988
 20
750.508
 11
10.5994
 21
751.803
  0
LINE
  8
0
 10
10.5994
 20
751.803
 11
11.0418
 21
753.165
  0
LINE
  8
0
 10
11.0418
 20
753.165
 11
11.3101
 21
754.571
  0
LINE
  8
0
 10
11.3101
 20
754.571
 11
11.4
 21
756
  0
LINE
  8
0
 10
11.4
 20
756
 11
3.81584
 21
756
  0
LINE
  8
0
 10
3.81584
 20
756
 11
1.93291
 21
752.739
  0
LINE
  8
0
 10
1.93291
 20
752.739
 11
-1.83292
 21
752.739
  0
LINE
  8
0
 10
-1.83292
 20
752.739
 11
-3.71585
 21
756
  0
LINE
  8
0
 10
-3.71585
 20
756
 11
-11.4
 21
756
  0
LINE
  8
0
 10
-11.4
 20
756
 11
-11.3101
 21
754.571
  0
LINE
  8
0
 10
-11.3101
 20
754.571
 11
-11.0418
 21
753.165
  0
LINE
  8
0
 10
-11.0418
 20
753.165
 11
-10.5994
 21
751.803
  0
LINE
  8
0
 10
-10.5994
 20
751.803
 11
-9.98988
 21
750.508
  0
LINE
  8
0
 10
-9.98988
 20
750.508
 11
-9.22278
 21
749.299
  0
LINE
  8
0
 10
-9.22278
 20
749.299
 11
-8.31024
 21
748.196
  0
LINE
  8
0
 10
-8.31024
 20
748.196
 11
-7.26663
 21
747.216
  0
LINE
  8
0
 10
-7.26663
 20
747.216
 11
-6.10841
 21
746.375
  0
LINE
  8
0
 10
-6.10841
 20
746.375
 11
-4.85388
 21
745.685
  0
LINE
  8
0
 10
-4.85388
 20
745.685
 11
-3.52278
 21
745.158
  0
LINE
  8
0
 10
-3.52278
 20
745.158
 11
-2.13614
 21
744.802
  0
LINE
  8
0
 10
-2.13614
 20
744.802
 11
-0.715805
 21
744.622
  0
LINE
  8
0
 10
-0.715805
 20
744.622
 11
0.715805
 21
744.622
  0
LINE
  8
0
 10
0.715805
 20
744.622
 11
2.13614
 21
744.802
  0
LINE
  8
0
 10
52.1361
 20
744.802
 11
53.5228
 21
745.158
  0
LINE
  8
0
 10
53.5228
 20
745.158
 11
54.8539
 21
745.685
  0
LINE
  8
0
 10
54.8539
 20
745.685
 11
56.1084
 21
746.375
  0
LINE
  8
0
 10
56.1084
 20
746.375
 11
57.2666
 21
747.216
  0
LINE
  8
0
 10
57.2666
 20
747.216
 11
58.3102
 21
748.196
  0
LINE
  8
0
 10
58.3102
 20
748.196
 11
59.2228
 21
749.299
  0
LINE
  8
0
 10
59.2228
 20
749.299
 11
59.9899
 21
750.508
  0
LINE
  8
0
 10
59.9899
 20
750.508
 11
60.5994
 21
751.803
  0
LINE
  8
0
 10
60.5994
 20
751.803
 11
61.0418
 21
753.165
  0
LINE
  8
0
 10
61.0418
 20
753.165
 11
61.3101
 21
754.571
  0
LINE
  8
0
 10
61.3101
 20
754.571
 11
61.4
 21
756
  0
LINE
  8
0
 10
61.4
 20
756
 11
53.7159
 21
756
  0
LINE
  8
0
 10
53.7159
 20
756
 11
51.8329
 21
752.739
  0
LINE
  8
0
 10
51.8329
 20
752.739
 11
48.0671
 21
752.739
  0
LINE
  8
0
 10
48.0671
 20
752.739
 11
46.1841
 21
756
  0
LINE
  8
0
 10
46.1841
 20
756
 11
38.6
 21
756
  0
LINE
  8
0
 10
38.6
 20
756
 11
38.6899
 21
754.571
  0
LINE
  8
0
 10
38.6899
 20
754.571
 11
38.9581
 21
753.165
  0
LINE
  8
0
 10
38.9581
 20
753.165
 11
39.4005
 21
751.803
  0
LINE
  8
0
 10
39.4005
 20
751.803
 11
40.0101
 21
750.508
  0
LINE
  8
0
 10
40.0101
 20
750.508
 11
40.7772
 21
749.299
  0
LINE
  8
0
 10
40.7772
 20
749.299
 11
41.6898
 21
748.196
  0
LINE
  8
0
 10
41.6898
 20
748.196
 11
42.7334
 21
747.216
  0
LINE
  8
0
 10
42.7334
 20
747.216
 11
43.8916
 21
746.375
  0
LINE
  8
0
 10
43.8916
 20
746.375
 11
45.1461
 21
745.685
  0
LINE
  8
0
 10
45.1461
 20
745.685
 11
46.4772
 21
745.158
  0
LINE
  8
0
 10
46.4772
 20
745.158
 11
47.8638
 21
744.802
  0
LINE
  8
0
 10
47.8638
 20
744.802
 11
49.2842
 21
744.622
  0
LINE
  8
0
 10
49.2842
 20
744.622
 11
50.7158
 21
744.622
  0
LINE
  8
0
 10
50.7158
 20
744.622
 11
52.1361
 21
744.802
  0
LINE
  8
0
 10
1.76138
 20
662.767
 11
2.90475
 21
663.06
  0
LINE
  8
0
 10
2.90475
 20
663.06
 11
4.00232
 21
663.495
  0
LINE
  8
0
 10
4.00232
 20
663.495
 11
5.03676
 21
664.063
  0
LINE
  8
0
 10
5.03676
 20
664.063
 11
5.99178
 21
664.757
  0
LINE
  8
0
 10
5.99178
 20
664.757
 11
6.85229
 21
665.565
  0
LINE
  8
0
 10
6.85229
 20
665.565
 11
7.60475
 21
666.475
  0
LINE
  8
0
 10
7.60475
 20
666.475
 11
8.23727
 21
667.472
  0
LINE
  8
0
 10
8.23727
 20
667.472
 11
8.73988
 21
668.54
  0
LINE
  8
0
 10
8.73988
 20
668.54
 11
9.10468
 21
669.662
  0
LINE
  8
0
 10
9.10468
 20
669.662
 11
9.32587
 21
670.822
  0
LINE
  8
0
 10
9.32587
 20
670.822
 11
9.39999
 21
672
  0
LINE
  8
0
 10
9.39999
 20
672
 11
3.81584
 21
672
  0
LINE
  8
0
 10
3.81584
 20
672
 11
1.93291
 21
668.739
  0
LINE
  8
0
 10
1.93291
 20
668.739
 11
-1.83292
 21
668.739
  0
LINE
  8
0
 10
-1.83292
 20
668.739
 11
-3.71585
 21
672
  0
LINE
  8
0
 10
-3.71585
 20
672
 11
-9.39999
 21
672
  0
LINE
  8
0
 10
-9.39999
 20
672
 11
-9.32587
 21
670.822
  0
LINE
  8
0
 10
-9.32587
 20
670.822
 11
-9.10468
 21
669.662
  0
LINE
  8
0
 10
-9.10468
 20
669.662
 11
-8.73988
 21
668.54
  0
LINE
  8
0
 10
-8.73988
 20
668.54
 11
-8.23727
 21
667.472
  0
LINE
  8
0
 10
-8.23727
 20
667.472
 11
-7.60475
 21
666.475
  0
LINE
  8
0
 10
-7.60475
 20
666.475
 11
-6.85229
 21
665.565
  0
LINE
  8
0
 10
-6.85229
 20
665.565
 11
-5.99178
 21
664.757
  0
LINE
  8
0
 10
-5.99178
 20
664.757
 11
-5.03676
 21
664.063
  0
LINE
  8
0
 10
-5.03676
 20
664.063
 11
-4.00232
 21
663.495
  0
LINE
  8
0
 10
-4.00232
 20
663.495
 11
-2.90475
 21
663.06
  0
LINE
  8
0
 10
-2.90475
 20
663.06
 11
-1.76138
 21
662.767
  0
LINE
  8
0
 10
-1.76138
 20
662.767
 11
-0.590225
 21
662.619
  0
LINE
  8
0
 10
-0.590225
 20
662.619
 11
0.590225
 21
662.619
  0
LINE
  8
0
 10
0.590225
 20
662.619
 11
1.76138
 21
662.767
  0
LINE
  8
0
 10
51.7614
 20
662.767
 11
52.9048
 21
663.06
  0
LINE
  8
0
 10
52.9048
 20
663.06
 11
54.0023
 21
663.495
  0
LINE
  8
0
 10
54.0023
 20
663.495
 11
55.0368
 21
664.063
  0
LINE
  8
0
 10
55.0368
 20
664.063
 11
55.9918
 21
664.757
  0
LINE
  8
0
 10
55.9918
 20
664.757
 11
56.8523
 21
665.565
  0
LINE
  8
0
 10
56.8523
 20
665.565
 11
57.6048
 21
666.475
  0
LINE
  8
0
 10
57.6048
 20
666.475
 11
58.2373
 21
667.472
  0
LINE
  8
0
 10
58.2373
 20
667.472
 11
58.7399
 21
668.54
  0
LINE
  8
0
 10
58.7399
 20
668.54
 11
59.1047
 21
669.662
  0
LINE
  8
0
 10
59.1047
 20
669.662
 11
59.3259
 21
670.822
  0
LINE
  8
0
 10
59.3259
 20
670.822
 11
59.4
 21
672
  0
LINE
  8
0
 10
59.4
 20
672
 11
53.7159
 21
672
  0
LINE
  8
0
 10
53.7159
 20
672
 11
51.8329
 21
668.739
  0
LINE
  8
0
 10
51.8329
 20
668.739
 11
48.0671
 21
668.739
  0
LINE
  8
0
 10
48.0671
 20
668.739
 11
46.1841
 21
672
  0
LINE
  8
0
 10
46.1841
 20
672
 11
40.6
 21
672
  0
LINE
  8
0
 10
40.6
 20
672
 11
40.6741
 21
670.822
  0
LINE
  8
0
 10
40.6741
 20
670.822
 11
40.8953
 21
669.662
  0
LINE
  8
0
 10
40.8953
 20
669.662
 11
41.2601
 21
668.54
  0
LINE
  8
0
 10
41.2601
 20
668.54
 11
41.7627
 21
667.472
  0
LINE
  8
0
 10
41.7627
 20
667.472
 11
42.3952
 21
666.475
  0
LINE
  8
0
 10
42.3952
 20
666.475
 11
43.1477
 21
665.565
  0
LINE
  8
0
 10
43.1477
 20
665.565
 11
44.0082
 21
664.757
  0
LINE
  8
0
 10
44.0082
 20
664.757
 11
44.9632
 21
664.063
  0
LINE
  8
0
 10
44.9632
 20
664.063
 11
45.9977
 21
663.495
  0
LINE
  8
0
 10
45.9977
 20
663.495
 11
47.0952
 21
663.06
  0
LINE
  8
0
 10
47.0952
 20
663.06
 11
48.2386
 21
662.767
  0
LINE
  8
0
 10
48.2386
 20
662.767
 11
49.4098
 21
662.619
  0
LINE
  8
0
 10
49.4098
 20
662.619
 11
50.5902
 21
662.619
  0
LINE
  8
0
 10
50.5902
 20
662.619
 11
51.7614
 21
662.767
  0
LINE
  8
0
 10
1.38661
 20
580.731
 11
2.28671
 21
580.962
  0
LINE
  8
0
 10
2.28671
 20
580.962
 11
3.15076
 21
581.304
  0
LINE
  8
0
 10
3.15076
 20
581.304
 11
3.9651
 21
581.752
  0
LINE
  8
0
 10
3.9651
 20
581.752
 11
4.71693
 21
582.298
  0
LINE
  8
0
 10
4.71693
 20
582.298
 11
5.39436
 21
582.934
  0
LINE
  8
0
 10
5.39436
 20
582.934
 11
5.98672
 21
583.65
  0
LINE
  8
0
 10
5.98672
 20
583.65
 11
6.48466
 21
584.435
  0
LINE
  8
0
 10
6.48466
 20
584.435
 11
6.88034
 21
585.276
  0
LINE
  8
0
 10
6.88034
 20
585.276
 11
7.16751
 21
586.16
  0
LINE
  8
0
 10
7.16751
 20
586.16
 11
7.34164
 21
587.073
  0
LINE
  8
0
 10
7.34164
 20
587.073
 11
7.39999
 21
588
  0
LINE
  8
0
 10
7.39999
 20
588
 11
3.81584
 21
588
  0
LINE
  8
0
 10
3.81584
 20
588
 11
1.93291
 21
584.739
  0
LINE
  8
0
 10
1.93291
 20
584.739
 11
-1.83292
 21
584.739
  0
LINE
  8
0
 10
-1.83292
 20
584.739
 11
-3.71585
 21
588
  0
LINE
  8
0
 10
-3.71585
 20
588
 11
-7.39999
 21
588
  0
LINE
  8
0
 10
-7.39999
 20
588
 11
-7.34164
 21
587.073
  0
LINE
  8
0
 10
-7.34164
 20
587.073
 11
-7.16751
 21
586.16
  0
LINE
  8
0
 10
-7.16751
 20
586.16
 11
-6.88034
 21
585.276
  0
LINE
  8
0
 10
-6.88034
 20
585.276
 11
-6.48466
 21
584.435
  0
LINE
  8
0
 10
-6.48466
 20
584.435
 11
-5.98672
 21
583.65
  0
LINE
  8
0
 10
-5.98672
 20
583.65
 11
-5.39436
 21
582.934
  0
LINE
  8
0
 10
-5.39436
 20
582.934
 11
-4.71693
 21
582.298
  0
LINE
  8
0
 10
-4.71693
 20
582.298
 11
-3.9651
 21
581.752
  0
LINE
  8
0
 10
-3.9651
 20
581.752
 11
-3.15076
 21
581.304
  0
LINE
  8
0
 10
-3.15076
 20
581.304
 11
-2.28671
 21
580.962
  0
LINE
  8
0
 10
-2.28671
 20
580.962
 11
-1.38661
 21
580.731
  0
LINE
  8
0
 10
-1.38661
 20
580.731
 11
-0.464645
 21
580.615
  0
LINE
  8
0
 10
-0.464645
 20
580.615
 11
0.464645
 21
580.615
  0
LINE
  8
0
 10
0.464645
 20
580.615
 11
1.38661
 21
580.731
  0
LINE
  8
0
 10
51.3866
 20
580.731
 11
52.2867
 21
580.962
  0
LINE
  8
0
 10
52.2867
 20
580.962
 11
53.1508
 21
581.304
  0
LINE
  8
0
 10
53.1508
 20
581.304
 11
53.9651
 21
581.752
  0
LINE
  8
0
 10
53.9651
 20
581.752
 11
54.7169
 21
582.298
  0
LINE
  8
0
 10
54.7169
 20
582.298
 11
55.3944
 21
582.934
  0
LINE
  8
0
 10
55.3944
 20
582.934
 11
55.9867
 21
583.65
  0
LINE
  8
0
 10
55.9867
 20
583.65
 11
56.4847
 21
584.435
  0
LINE
  8
0
 10
56.4847
 20
584.435
 11
56.8803
 21
585.276
  0
LINE
  8
0
 10
56.8803
 20
585.276
 11
57.1675
 21
586.16
  0
LINE
  8
0
 10
57.1675
 20
586.16
 11
57.3416
 21
587.073
  0
LINE
  8
0
 10
57.3416
 20
587.073
 11
57.4
 21
588
  0
LINE
  8
0
 10
57.4
 20
588
 11
53.7159
 21
588
  0
LINE
  8
0
 10
53.7159
 20
588
 11
51.8329
 21
584.739
  0
LINE
  8
0
 10
51.8329
 20
584.739
 11
48.0671
 21
584.739
  0
LINE
  8
0
 10
48.0671
 20
584.739
 11
46.1841
 21
588
  0
LINE
  8
0
 10
46.1841
 20
588
 11
42.6
 21
588
  0
LINE
  8
0
 10
42.6
 20
588
 11
42.6583
 21
587.073
  0
LINE
  8
0
 10
42.6583
 20
587.073
 11
42.8325
 21
586.16
  0
LINE
  8
0
 10
42.8325
 20
586.16
 11
43.1196
 21
585.276
  0
LINE
  8
0
 10
43.1196
 20
585.276
 11
43.5153
 21
584.435
  0
LINE
  8
0
 10
43.5153
 20
584.435
 11
44.0133
 21
583.65
  0
LINE
  8
0
 10
44.0133
 20
583.65
 11
44.6056
 21
582.934
  0
LINE
  8
0
 10
44.6056
 20
582.934
 11
45.2831
 21
582.298
  0
LINE
  8
0
 10
45.2831
 20
582.298
 11
46.0349
 21
581.752
  0
LINE
  8
0
 10
46.0349
 20
581.752
 11
46.8492
 21
581.304
  0
LINE
  8
0
 10
46.8492
 20
581.304
 11
47.7133
 21
580.962
  0
LINE
  8
0
 10
47.7133
 20
580.962
 11
48.6134
 21
580.731
  0
LINE
  8
0
 10
48.6134
 20
580.731
 11
49.5353
 21
580.615
  0
LINE
  8
0
 10
49.5353
 20
580.615
 11
50.4646
 21
580.615
  0
LINE
  8
0
 10
50.4646
 20
580.615
 11
51.3866
 21
580.731
  0
LINE
  8
0
 10
1.01186
 20
498.696
 11
1.66869
 21
498.864
  0
LINE
  8
0
 10
1.66869
 20
498.864
 11
2.29919
 21
499.114
  0
LINE
  8
0
 10
2.29919
 20
499.114
 11
2.89346
 21
499.441
  0
LINE
  8
0
 10
2.89346
 20
499.441
 11
3.44208
 21
499.839
  0
LINE
  8
0
 10
3.44208
 20
499.839
 11
3.93642
 21
500.303
  0
LINE
  8
0
 10
3.93642
 20
500.303
 11
4.36868
 21
500.826
  0
LINE
  8
0
 10
4.36868
 20
500.826
 11
4.73204
 21
501.399
  0
LINE
  8
0
 10
4.73204
 20
501.399
 11
5.02078
 21
502.012
  0
LINE
  8
0
 10
5.02078
 20
502.012
 11
5.23035
 21
502.657
  0
LINE
  8
0
 10
5.23035
 20
502.657
 11
5.35741
 21
503.323
  0
LINE
  8
0
 10
5.35741
 20
503.323
 11
5.39999
 21
504
  0
LINE
  8
0
 10
5.39999
 20
504
 11
3.72499
 21
504
  0
LINE
  8
0
 10
3.72499
 20
504
 11
3.71388
 21
503.823
  0
LINE
  8
0
 10
3.71388
 20
503.823
 11
2.00293
 21
500.86
  0
LINE
  8
0
 10
2.00293
 20
500.86
 11
1.99594
 21
500.855
  0
LINE
  8
0
 10
1.99594
 20
500.855
 11
1.78458
 21
500.739
  0
LINE
  8
0
 10
1.78458
 20
500.739
 11
-1.78458
 21
500.739
  0
LINE
  8
0
 10
-1.78458
 20
500.739
 11
-1.85539
 21
500.778
  0
LINE
  8
0
 10
-1.85539
 20
500.778
 11
-3.71585
 21
504
  0
LINE
  8
0
 10
-3.71585
 20
504
 11
-5.39999
 21
504
  0
LINE
  8
0
 10
-5.39999
 20
504
 11
-5.35741
 21
503.323
  0
LINE
  8
0
 10
-5.35741
 20
503.323
 11
-5.23035
 21
502.657
  0
LINE
  8
0
 10
-5.23035
 20
502.657
 11
-5.02078
 21
502.012
  0
LINE
  8
0
 10
-5.02078
 20
502.012
 11
-4.73204
 21
501.399
  0
LINE
  8
0
 10
-4.73204
 20
501.399
 11
-4.36868
 21
500.826
  0
LINE
  8
0
 10
-4.36868
 20
500.826
 11
-3.93642
 21
500.303
  0
LINE
  8
0
 10
-3.93642
 20
500.303
 11
-3.44208
 21
499.839
  0
LINE
  8
0
 10
-3.44208
 20
499.839
 11
-2.89346
 21
499.441
  0
LINE
  8
0
 10
-2.89346
 20
499.441
 11
-2.29919
 21
499.114
  0
LINE
  8
0
 10
-2.29919
 20
499.114
 11
-1.66869
 21
498.864
  0
LINE
  8
0
 10
-1.66869
 20
498.864
 11
-1.01186
 21
498.696
  0
LINE
  8
0
 10
-1.01186
 20
498.696
 11
-0.339066
 21
498.611
  0
LINE
  8
0
 10
-0.339066
 20
498.611
 11
0.339066
 21
498.611
  0
LINE
  8
0
 10
0.339066
 20
498.611
 11
1.01186
 21
498.696
  0
LINE
  8
0
 10
51.0119
 20
498.696
 11
51.6687
 21
498.864
  0
LINE
  8
0
 10
51.6687
 20
498.864
 11
52.2992
 21
499.114
  0
LINE
  8
0
 10
52.2992
 20
499.114
 11
52.8935
 21
499.441
  0
LINE
  8
0
 10
52.8935
 20
499.441
 11
53.4421
 21
499.839
  0
LINE
  8
0
 10
53.4421
 20
499.839
 11
53.9364
 21
500.303
  0
LINE
  8
0
 10
53.9364
 20
500.303
 11
54.3687
 21
500.826
  0
LINE
  8
0
 10
54.3687
 20
500.826
 11
54.7321
 21
501.399
  0
LINE
  8
0
 10
54.7321
 20
501.399
 11
55.0208
 21
502.012
  0
LINE
  8
0
 10
55.0208
 20
502.012
 11
55.2303
 21
502.657
  0
LINE
  8
0
 10
55.2303
 20
502.657
 11
55.3574
 21
503.323
  0
LINE
  8
0
 10
55.3574
 20
503.323
 11
55.4
 21
504
  0
LINE
  8
0
 10
55.4
 20
504
 11
53.7159
 21
504
  0
LINE
  8
0
 10
53.7159
 20
504
 11
51.8554
 21
500.778
  0
LINE
  8
0
 10
51.8554
 20
500.778
 11
51.7846
 21
500.739
  0
LINE
  8
0
 10
51.7846
 20
500.739
 11
48.2154
 21
500.739
  0
LINE
  8
0
 10
48.2154
 20
500.739
 11
48.004
 21
500.855
  0
LINE
  8
0
 10
48.004
 20
500.855
 11
47.9971
 21
500.86
  0
LINE
  8
0
 10
47.9971
 20
500.86
 11
46.2861
 21
503.823
  0
LINE
  8
0
 10
46.2861
 20
503.823
 11
46.275
 21
504
  0
LINE
  8
0
 10
46.275
 20
504
 11
44.6
 21
504
  0
LINE
  8
0
 10
44.6
 20
504
 11
44.6426
 21
503.323
  0
LINE
  8
0
 10
44.6426
 20
503.323
 11
44.7697
 21
502.657
  0
LINE
  8
0
 10
44.7697
 20
502.657
 11
44.9792
 21
502.012
  0
LINE
  8
0
 10
44.9792
 20
502.012
 11
45.2679
 21
501.399
  0
LINE
  8
0
 10
45.2679
 20
501.399
 11
45.6313
 21
500.826
  0
LINE
  8
0
 10
45.6313
 20
500.826
 11
46.0636
 21
500.303
  0
LINE
  8
0
 10
46.0636
 20
500.303
 11
46.5579
 21
499.839
  0
LINE
  8
0
 10
46.5579
 20
499.839
 11
47.1065
 21
499.441
  0
LINE
  8
0
 10
47.1065
 20
499.441
 11
47.7008
 21
499.114
  0
LINE
  8
0
 10
47.7008
 20
499.114
 11
48.3313
 21
498.864
  0
LINE
  8
0
 10
48.3313
 20
498.864
 11
48.9881
 21
498.696
  0
LINE
  8
0
 10
48.9881
 20
498.696
 11
49.6609
 21
498.611
  0
LINE
  8
0
 10
49.6609
 20
498.611
 11
50.3391
 21
498.611
  0
LINE
  8
0
 10
50.3391
 20
498.611
 11
51.0119
 21
498.696
  0
ENDSEC
  0
SECTION
  2
OBJECTS
  0
DICTIONARY
  0
ENDSEC
  0
EOF
