  0
SECTION
  2
BLOCKS
  0
ENDSEC
  0
SECTION
  2
ENTITIES
  0
LINE
  8
0
 10
60
 20
477.934
 11
10
 21
477.934
  0
LINE
  8
0
 10
10
 20
477.934
 11
10
 21
475.196
  0
LINE
  8
0
 10
10
 20
475.196
 11
0
 21
475.196
  0
LINE
  8
0
 10
0
 20
475.196
 11
0
 21
472.556
  0
LINE
  8
0
 10
0
 20
472.556
 11
0.827347
 21
473.078
  0
LINE
  8
0
 10
0.827347
 20
473.078
 11
1.70293
 21
473.608
  0
LINE
  8
0
 10
1.70293
 20
473.608
 11
13.9378
 21
473.608
  0
LINE
  8
0
 10
13.9378
 20
473.608
 11
14.1346
 21
473.329
  0
LINE
  8
0
 10
14.1346
 20
473.329
 11
14.3633
 21
473.078
  0
LINE
  8
0
 10
14.3633
 20
473.078
 11
14.4543
 21
472.974
  0
LINE
  8
0
 10
14.4543
 20
472.974
 11
14.8142
 21
472.654
  0
LINE
  8
0
 10
14.8142
 20
472.654
 11
15.2085
 21
472.386
  0
LINE
  8
0
 10
15.2085
 20
472.386
 11
15.631
 21
472.172
  0
LINE
  8
0
 10
15.631
 20
472.172
 11
15.7657
 21
472.125
  0
LINE
  8
0
 10
15.7657
 20
472.125
 11
16.0752
 21
472.011
  0
LINE
  8
0
 10
16.0752
 20
472.011
 11
16.5339
 21
471.911
  0
LINE
  8
0
 10
16.5339
 20
471.911
 11
17
 21
471.878
  0
LINE
  8
0
 10
17
 20
471.878
 11
17.4661
 21
471.911
  0
LINE
  8
0
 10
17.4661
 20
471.911
 11
17.9248
 21
472.011
  0
LINE
  8
0
 10
17.9248
 20
472.011
 11
18.2343
 21
472.125
  0
LINE
  8
0
 10
18.2343
 20
472.125
 11
18.369
 21
472.172
  0
LINE
  8
0
 10
18.369
 20
472.172
 11
18.7915
 21
472.386
  0
LINE
  8
0
 10
18.7915
 20
472.386
 11
19.1858
 21
472.654
  0
LINE
  8
0
 10
19.1858
 20
472.654
 11
19.5457
 21
472.974
  0
LINE
  8
0
 10
19.5457
 20
472.974
 11
19.6367
 21
473.078
  0
LINE
  8
0
 10
19.6367
 20
473.078
 11
19.8653
 21
473.329
  0
LINE
  8
0
 10
19.8653
 20
473.329
 11
20.0621
 21
473.608
  0
LINE
  8
0
 10
20.0621
 20
473.608
 11
28.5
 21
473.608
  0
LINE
  8
0
 10
28.5
 20
473.608
 11
28.5
 21
466.392
  0
LINE
  8
0
 10
28.5
 20
466.392
 11
20.0621
 21
466.392
  0
LINE
  8
0
 10
20.0621
 20
466.392
 11
19.8653
 21
466.671
  0
LINE
  8
0
 10
19.8653
 20
466.671
 11
19.6367
 21
466.922
  0
LINE
  8
0
 10
19.6367
 20
466.922
 11
19.5457
 21
467.026
  0
LINE
  8
0
 10
19.5457
 20
467.026
 11
19.1858
 21
467.346
  0
LINE
  8
0
 10
19.1858
 20
467.346
 11
18.7915
 21
467.614
  0
LINE
  8
0
 10
18.7915
 20
467.614
 11
18.369
 21
467.828
  0
LINE
  8
0
 10
18.369
 20
467.828
 11
18.2343
 21
467.875
  0
LINE
  8
0
 10
18.2343
 20
467.875
 11
17.9248
 21
467.989
  0
LINE
  8
0
 10
17.9248
 20
467.989
 11
17.4661
 21
468.089
  0
LINE
  8
0
 10
17.4661
 20
468.089
 11
17
 21
468.122
  0
LINE
  8
0
 10
17
 20
468.122
 11
16.5339
 21
468.089
  0
LINE
  8
0
 10
16.5339
 20
468.089
 11
16.0752
 21
467.989
  0
LINE
  8
0
 10
16.0752
 20
467.989
 11
15.7657
 21
467.875
  0
LINE
  8
0
 10
15.7657
 20
467.875
 11
15.631
 21
467.828
  0
LINE
  8
0
 10
15.631
 20
467.828
 11
15.2085
 21
467.614
  0
LINE
  8
0
 10
15.2085
 20
467.614
 11
14.8142
 21
467.346
  0
LINE
  8
0
 10
14.8142
 20
467.346
 11
14.4543
 21
467.026
  0
LINE
  8
0
 10
14.4543
 20
467.026
 11
14.3633
 21
466.922
  0
LINE
  8
0
 10
14.3633
 20
466.922
 11
14.1346
 21
466.671
  0
LINE
  8
0
 10
14.1346
 20
466.671
 11
13.9378
 21
466.392
  0
LINE
  8
0
 10
13.9378
 20
466.392
 11
1.70293
 21
466.392
  0
LINE
  8
0
 10
1.70293
 20
466.392
 11
0.827347
 21
466.922
  0
LINE
  8
0
 10
0.827347
 20
466.922
 11
0
 21
467.444
  0
LINE
  8
0
 10
0
 20
467.444
 11
0
 21
464.804
  0
LINE
  8
0
 10
0
 20
464.804
 11
10
 21
464.804
  0
LINE
  8
0
 10
10
 20
464.804
 11
10
 21
462.066
  0
LINE
  8
0
 10
10
 20
462.066
 11
60
 21
462.066
  0
LINE
  8
0
 10
60
 20
462.066
 11
60
 21
477.934
  0
LINE
  8
0
 10
34.887
 20
468.204
 11
34.6627
 21
468.232
  0
LINE
  8
0
 10
34.6627
 20
468.232
 11
34.4438
 21
468.288
  0
LINE
  8
0
 10
34.4438
 20
468.288
 11
34.2336
 21
468.371
  0
LINE
  8
0
 10
34.2336
 20
468.371
 11
34.0355
 21
468.48
  0
LINE
  8
0
 10
34.0355
 20
468.48
 11
33.8526
 21
468.613
  0
LINE
  8
0
 10
33.8526
 20
468.613
 11
33.6879
 21
468.768
  0
LINE
  8
0
 10
33.6879
 20
468.768
 11
33.5438
 21
468.942
  0
LINE
  8
0
 10
33.5438
 20
468.942
 11
33.4226
 21
469.133
  0
LINE
  8
0
 10
33.4226
 20
469.133
 11
33.3264
 21
469.337
  0
LINE
  8
0
 10
33.3264
 20
469.337
 11
33.2565
 21
469.552
  0
LINE
  8
0
 10
33.2565
 20
469.552
 11
33.2142
 21
469.774
  0
LINE
  8
0
 10
33.2142
 20
469.774
 11
33.2
 21
470
  0
LINE
  8
0
 10
33.2
 20
470
 11
33.2142
 21
470.226
  0
LINE
  8
0
 10
33.2142
 20
470.226
 11
33.2565
 21
470.448
  0
LINE
  8
0
 10
33.2565
 20
470.448
 11
33.3264
 21
470.663
  0
LINE
  8
0
 10
33.3264
 20
470.663
 11
33.4226
 21
470.867
  0
LINE
  8
0
 10
33.4226
 20
470.867
 11
33.5438
 21
471.058
  0
LINE
  8
0
 10
33.5438
 20
471.058
 11
33.6879
 21
471.232
  0
LINE
  8
0
 10
33.6879
 20
471.232
 11
33.8526
 21
471.387
  0
LINE
  8
0
 10
33.8526
 20
471.387
 11
34.0355
 21
471.52
  0
LINE
  8
0
 10
34.0355
 20
471.52
 11
34.2336
 21
471.629
  0
LINE
  8
0
 10
34.2336
 20
471.629
 11
34.4438
 21
471.712
  0
LINE
  8
0
 10
34.4438
 20
471.712
 11
34.6627
 21
471.768
  0
LINE
  8
0
 10
34.6627
 20
471.768
 11
34.887
 21
471.796
  0
LINE
  8
0
 10
34.887
 20
471.796
 11
35.113
 21
471.796
  0
LINE
  8
0
 10
35.113
 20
471.796
 11
35.3373
 21
471.768
  0
LINE
  8
0
 10
35.3373
 20
471.768
 11
35.5562
 21
471.712
  0
LINE
  8
0
 10
35.5562
 20
471.712
 11
35.7664
 21
471.629
  0
LINE
  8
0
 10
35.7664
 20
471.629
 11
35.9645
 21
471.52
  0
LINE
  8
0
 10
35.9645
 20
471.52
 11
36.1474
 21
471.387
  0
LINE
  8
0
 10
36.1474
 20
471.387
 11
36.3121
 21
471.232
  0
LINE
  8
0
 10
36.3121
 20
471.232
 11
36.4562
 21
471.058
  0
LINE
  8
0
 10
36.4562
 20
471.058
 11
36.5773
 21
470.867
  0
LINE
  8
0
 10
36.5773
 20
470.867
 11
36.6736
 21
470.663
  0
LINE
  8
0
 10
36.6736
 20
470.663
 11
36.7434
 21
470.448
  0
LINE
  8
0
 10
36.7434
 20
470.448
 11
36.7858
 21
470.226
  0
LINE
  8
0
 10
36.7858
 20
470.226
 11
36.8
 21
470
  0
LINE
  8
0
 10
36.8
 20
470
 11
36.7858
 21
469.774
  0
LINE
  8
0
 10
36.7858
 20
469.774
 11
36.7434
 21
469.552
  0
LINE
  8
0
 10
36.7434
 20
469.552
 11
36.6736
 21
469.337
  0
LINE
  8
0
 10
36.6736
 20
469.337
 11
36.5773
 21
469.133
  0
LINE
  8
0
 10
36.5773
 20
469.133
 11
36.4562
 21
468.942
  0
LINE
  8
0
 10
36.4562
 20
468.942
 11
36.3121
 21
468.768
  0
LINE
  8
0
 10
36.3121
 20
468.768
 11
36.1474
 21
468.613
  0
LINE
  8
0
 10
36.1474
 20
468.613
 11
35.9645
 21
468.48
  0
LINE
  8
0
 10
35.9645
 20
468.48
 11
35.7664
 21
468.371
  0
LINE
  8
0
 10
35.7664
 20
468.371
 11
35.5562
 21
468.288
  0
LINE
  8
0
 10
35.5562
 20
468.288
 11
35.3373
 21
468.232
  0
LINE
  8
0
 10
35.3373
 20
468.232
 11
35.113
 21
468.204
  0
LINE
  8
0
 10
35.113
 20
468.204
 11
34.887
 21
468.204
  0
LINE
  8
0
 10
49.887
 20
468.204
 11
49.6627
 21
468.232
  0
LINE
  8
0
 10
49.6627
 20
468.232
 11
49.4438
 21
468.288
  0
LINE
  8
0
 10
49.4438
 20
468.288
 11
49.2336
 21
468.371
  0
LINE
  8
0
 10
49.2336
 20
468.371
 11
49.0355
 21
468.48
  0
LINE
  8
0
 10
49.0355
 20
468.48
 11
48.8526
 21
468.613
  0
LINE
  8
0
 10
48.8526
 20
468.613
 11
48.6879
 21
468.768
  0
LINE
  8
0
 10
48.6879
 20
468.768
 11
48.5438
 21
468.942
  0
LINE
  8
0
 10
48.5438
 20
468.942
 11
48.4226
 21
469.133
  0
LINE
  8
0
 10
48.4226
 20
469.133
 11
48.3264
 21
469.337
  0
LINE
  8
0
 10
48.3264
 20
469.337
 11
48.2565
 21
469.552
  0
LINE
  8
0
 10
48.2565
 20
469.552
 11
48.2142
 21
469.774
  0
LINE
  8
0
 10
48.2142
 20
469.774
 11
48.2
 21
470
  0
LINE
  8
0
 10
48.2
 20
470
 11
48.2142
 21
470.226
  0
LINE
  8
0
 10
48.2142
 20
470.226
 11
48.2565
 21
470.448
  0
LINE
  8
0
 10
48.2565
 20
470.448
 11
48.3264
 21
470.663
  0
LINE
  8
0
 10
48.3264
 20
470.663
 11
48.4226
 21
470.867
  0
LINE
  8
0
 10
48.4226
 20
470.867
 11
48.5438
 21
471.058
  0
LINE
  8
0
 10
48.5438
 20
471.058
 11
48.6879
 21
471.232
  0
LINE
  8
0
 10
48.6879
 20
471.232
 11
48.8526
 21
471.387
  0
LINE
  8
0
 10
48.8526
 20
471.387
 11
49.0355
 21
471.52
  0
LINE
  8
0
 10
49.0355
 20
471.52
 11
49.2336
 21
471.629
  0
LINE
  8
0
 10
49.2336
 20
471.629
 11
49.4438
 21
471.712
  0
LINE
  8
0
 10
49.4438
 20
471.712
 11
49.6627
 21
471.768
  0
LINE
  8
0
 10
49.6627
 20
471.768
 11
49.887
 21
471.796
  0
LINE
  8
0
 10
49.887
 20
471.796
 11
50.113
 21
471.796
  0
LINE
  8
0
 10
50.113
 20
471.796
 11
50.3373
 21
471.768
  0
LINE
  8
0
 10
50.3373
 20
471.768
 11
50.5562
 21
471.712
  0
LINE
  8
0
 10
50.5562
 20
471.712
 11
50.7664
 21
471.629
  0
LINE
  8
0
 10
50.7664
 20
471.629
 11
50.9645
 21
471.52
  0
LINE
  8
0
 10
50.9645
 20
471.52
 11
51.1474
 21
471.387
  0
LINE
  8
0
 10
51.1474
 20
471.387
 11
51.3121
 21
471.232
  0
LINE
  8
0
 10
51.3121
 20
471.232
 11
51.4562
 21
471.058
  0
LINE
  8
0
 10
51.4562
 20
471.058
 11
51.5773
 21
470.867
  0
LINE
  8
0
 10
51.5773
 20
470.867
 11
51.6736
 21
470.663
  0
LINE
  8
0
 10
51.6736
 20
470.663
 11
51.7434
 21
470.448
  0
LINE
  8
0
 10
51.7434
 20
470.448
 11
51.7858
 21
470.226
  0
LINE
  8
0
 10
51.7858
 20
470.226
 11
51.8
 21
470
  0
LINE
  8
0
 10
51.8
 20
470
 11
51.7858
 21
469.774
  0
LINE
  8
0
 10
51.7858
 20
469.774
 11
51.7434
 21
469.552
  0
LINE
  8
0
 10
51.7434
 20
469.552
 11
51.6736
 21
469.337
  0
LINE
  8
0
 10
51.6736
 20
469.337
 11
51.5773
 21
469.133
  0
LINE
  8
0
 10
51.5773
 20
469.133
 11
51.4562
 21
468.942
  0
LINE
  8
0
 10
51.4562
 20
468.942
 11
51.3121
 21
468.768
  0
LINE
  8
0
 10
51.3121
 20
468.768
 11
51.1474
 21
468.613
  0
LINE
  8
0
 10
51.1474
 20
468.613
 11
50.9645
 21
468.48
  0
LINE
  8
0
 10
50.9645
 20
468.48
 11
50.7664
 21
468.371
  0
LINE
  8
0
 10
50.7664
 20
468.371
 11
50.5562
 21
468.288
  0
LINE
  8
0
 10
50.5562
 20
468.288
 11
50.3373
 21
468.232
  0
LINE
  8
0
 10
50.3373
 20
468.232
 11
50.113
 21
468.204
  0
LINE
  8
0
 10
50.113
 20
468.204
 11
49.887
 21
468.204
  0
LINE
  8
0
 10
60
 20
427.934
 11
10
 21
427.934
  0
LINE
  8
0
 10
10
 20
427.934
 11
10
 21
425.196
  0
LINE
  8
0
 10
10
 20
425.196
 11
0
 21
425.196
  0
LINE
  8
0
 10
0
 20
425.196
 11
0
 21
422.556
  0
LINE
  8
0
 10
0
 20
422.556
 11
0.827347
 21
423.078
  0
LINE
  8
0
 10
0.827347
 20
423.078
 11
1.70293
 21
423.608
  0
LINE
  8
0
 10
1.70293
 20
423.608
 11
13.9378
 21
423.608
  0
LINE
  8
0
 10
13.9378
 20
423.608
 11
14.1346
 21
423.329
  0
LINE
  8
0
 10
14.1346
 20
423.329
 11
14.3633
 21
423.078
  0
LINE
  8
0
 10
14.3633
 20
423.078
 11
14.4543
 21
422.974
  0
LINE
  8
0
 10
14.4543
 20
422.974
 11
14.8142
 21
422.654
  0
LINE
  8
0
 10
14.8142
 20
422.654
 11
15.2085
 21
422.386
  0
LINE
  8
0
 10
15.2085
 20
422.386
 11
15.631
 21
422.172
  0
LINE
  8
0
 10
15.631
 20
422.172
 11
15.7657
 21
422.125
  0
LINE
  8
0
 10
15.7657
 20
422.125
 11
16.0752
 21
422.011
  0
LINE
  8
0
 10
16.0752
 20
422.011
 11
16.5339
 21
421.911
  0
LINE
  8
0
 10
16.5339
 20
421.911
 11
17
 21
421.878
  0
LINE
  8
0
 10
17
 20
421.878
 11
17.4661
 21
421.911
  0
LINE
  8
0
 10
17.4661
 20
421.911
 11
17.9248
 21
422.011
  0
LINE
  8
0
 10
17.9248
 20
422.011
 11
18.2343
 21
422.125
  0
LINE
  8
0
 10
18.2343
 20
422.125
 11
18.369
 21
422.172
  0
LINE
  8
0
 10
18.369
 20
422.172
 11
18.7915
 21
422.386
  0
LINE
  8
0
 10
18.7915
 20
422.386
 11
19.1858
 21
422.654
  0
LINE
  8
0
 10
19.1858
 20
422.654
 11
19.5457
 21
422.974
  0
LINE
  8
0
 10
19.5457
 20
422.974
 11
19.6367
 21
423.078
  0
LINE
  8
0
 10
19.6367
 20
423.078
 11
19.8653
 21
423.329
  0
LINE
  8
0
 10
19.8653
 20
423.329
 11
20.0621
 21
423.608
  0
LINE
  8
0
 10
20.0621
 20
423.608
 11
28.5
 21
423.608
  0
LINE
  8
0
 10
28.5
 20
423.608
 11
28.5
 21
416.392
  0
LINE
  8
0
 10
28.5
 20
416.392
 11
20.0621
 21
416.392
  0
LINE
  8
0
 10
20.0621
 20
416.392
 11
19.8653
 21
416.671
  0
LINE
  8
0
 10
19.8653
 20
416.671
 11
19.6367
 21
416.922
  0
LINE
  8
0
 10
19.6367
 20
416.922
 11
19.5457
 21
417.026
  0
LINE
  8
0
 10
19.5457
 20
417.026
 11
19.1858
 21
417.346
  0
LINE
  8
0
 10
19.1858
 20
417.346
 11
18.7915
 21
417.614
  0
LINE
  8
0
 10
18.7915
 20
417.614
 11
18.369
 21
417.828
  0
LINE
  8
0
 10
18.369
 20
417.828
 11
18.2343
 21
417.875
  0
LINE
  8
0
 10
18.2343
 20
417.875
 11
17.9248
 21
417.989
  0
LINE
  8
0
 10
17.9248
 20
417.989
 11
17.4661
 21
418.089
  0
LINE
  8
0
 10
17.4661
 20
418.089
 11
17
 21
418.122
  0
LINE
  8
0
 10
17
 20
418.122
 11
16.5339
 21
418.089
  0
LINE
  8
0
 10
16.5339
 20
418.089
 11
16.0752
 21
417.989
  0
LINE
  8
0
 10
16.0752
 20
417.989
 11
15.7657
 21
417.875
  0
LINE
  8
0
 10
15.7657
 20
417.875
 11
15.631
 21
417.828
  0
LINE
  8
0
 10
15.631
 20
417.828
 11
15.2085
 21
417.614
  0
LINE
  8
0
 10
15.2085
 20
417.614
 11
14.8142
 21
417.346
  0
LINE
  8
0
 10
14.8142
 20
417.346
 11
14.4543
 21
417.026
  0
LINE
  8
0
 10
14.4543
 20
417.026
 11
14.3633
 21
416.922
  0
LINE
  8
0
 10
14.3633
 20
416.922
 11
14.1346
 21
416.671
  0
LINE
  8
0
 10
14.1346
 20
416.671
 11
13.9378
 21
416.392
  0
LINE
  8
0
 10
13.9378
 20
416.392
 11
1.70293
 21
416.392
  0
LINE
  8
0
 10
1.70293
 20
416.392
 11
0.827347
 21
416.922
  0
LINE
  8
0
 10
0.827347
 20
416.922
 11
0
 21
417.444
  0
LINE
  8
0
 10
0
 20
417.444
 11
0
 21
414.804
  0
LINE
  8
0
 10
0
 20
414.804
 11
10
 21
414.804
  0
LINE
  8
0
 10
10
 20
414.804
 11
10
 21
412.066
  0
LINE
  8
0
 10
10
 20
412.066
 11
60
 21
412.066
  0
LINE
  8
0
 10
60
 20
412.066
 11
60
 21
427.934
  0
LINE
  8
0
 10
34.887
 20
418.204
 11
34.6627
 21
418.232
  0
LINE
  8
0
 10
34.6627
 20
418.232
 11
34.4438
 21
418.288
  0
LINE
  8
0
 10
34.4438
 20
418.288
 11
34.2336
 21
418.371
  0
LINE
  8
0
 10
34.2336
 20
418.371
 11
34.0355
 21
418.48
  0
LINE
  8
0
 10
34.0355
 20
418.48
 11
33.8526
 21
418.613
  0
LINE
  8
0
 10
33.8526
 20
418.613
 11
33.6879
 21
418.768
  0
LINE
  8
0
 10
33.6879
 20
418.768
 11
33.5438
 21
418.942
  0
LINE
  8
0
 10
33.5438
 20
418.942
 11
33.4226
 21
419.133
  0
LINE
  8
0
 10
33.4226
 20
419.133
 11
33.3264
 21
419.337
  0
LINE
  8
0
 10
33.3264
 20
419.337
 11
33.2565
 21
419.552
  0
LINE
  8
0
 10
33.2565
 20
419.552
 11
33.2142
 21
419.774
  0
LINE
  8
0
 10
33.2142
 20
419.774
 11
33.2
 21
420
  0
LINE
  8
0
 10
33.2
 20
420
 11
33.2142
 21
420.226
  0
LINE
  8
0
 10
33.2142
 20
420.226
 11
33.2565
 21
420.448
  0
LINE
  8
0
 10
33.2565
 20
420.448
 11
33.3264
 21
420.663
  0
LINE
  8
0
 10
33.3264
 20
420.663
 11
33.4226
 21
420.867
  0
LINE
  8
0
 10
33.4226
 20
420.867
 11
33.5438
 21
421.058
  0
LINE
  8
0
 10
33.5438
 20
421.058
 11
33.6879
 21
421.232
  0
LINE
  8
0
 10
33.6879
 20
421.232
 11
33.8526
 21
421.387
  0
LINE
  8
0
 10
33.8526
 20
421.387
 11
34.0355
 21
421.52
  0
LINE
  8
0
 10
34.0355
 20
421.52
 11
34.2336
 21
421.629
  0
LINE
  8
0
 10
34.2336
 20
421.629
 11
34.4438
 21
421.712
  0
LINE
  8
0
 10
34.4438
 20
421.712
 11
34.6627
 21
421.768
  0
LINE
  8
0
 10
34.6627
 20
421.768
 11
34.887
 21
421.796
  0
LINE
  8
0
 10
34.887
 20
421.796
 11
35.113
 21
421.796
  0
LINE
  8
0
 10
35.113
 20
421.796
 11
35.3373
 21
421.768
  0
LINE
  8
0
 10
35.3373
 20
421.768
 11
35.5562
 21
421.712
  0
LINE
  8
0
 10
35.5562
 20
421.712
 11
35.7664
 21
421.629
  0
LINE
  8
0
 10
35.7664
 20
421.629
 11
35.9645
 21
421.52
  0
LINE
  8
0
 10
35.9645
 20
421.52
 11
36.1474
 21
421.387
  0
LINE
  8
0
 10
36.1474
 20
421.387
 11
36.3121
 21
421.232
  0
LINE
  8
0
 10
36.3121
 20
421.232
 11
36.4562
 21
421.058
  0
LINE
  8
0
 10
36.4562
 20
421.058
 11
36.5773
 21
420.867
  0
LINE
  8
0
 10
36.5773
 20
420.867
 11
36.6736
 21
420.663
  0
LINE
  8
0
 10
36.6736
 20
420.663
 11
36.7434
 21
420.448
  0
LINE
  8
0
 10
36.7434
 20
420.448
 11
36.7858
 21
420.226
  0
LINE
  8
0
 10
36.7858
 20
420.226
 11
36.8
 21
420
  0
LINE
  8
0
 10
36.8
 20
420
 11
36.7858
 21
419.774
  0
LINE
  8
0
 10
36.7858
 20
419.774
 11
36.7434
 21
419.552
  0
LINE
  8
0
 10
36.7434
 20
419.552
 11
36.6736
 21
419.337
  0
LINE
  8
0
 10
36.6736
 20
419.337
 11
36.5773
 21
419.133
  0
LINE
  8
0
 10
36.5773
 20
419.133
 11
36.4562
 21
418.942
  0
LINE
  8
0
 10
36.4562
 20
418.942
 11
36.3121
 21
418.768
  0
LINE
  8
0
 10
36.3121
 20
418.768
 11
36.1474
 21
418.613
  0
LINE
  8
0
 10
36.1474
 20
418.613
 11
35.9645
 21
418.48
  0
LINE
  8
0
 10
35.9645
 20
418.48
 11
35.7664
 21
418.371
  0
LINE
  8
0
 10
35.7664
 20
418.371
 11
35.5562
 21
418.288
  0
LINE
  8
0
 10
35.5562
 20
418.288
 11
35.3373
 21
418.232
  0
LINE
  8
0
 10
35.3373
 20
418.232
 11
35.113
 21
418.204
  0
LINE
  8
0
 10
35.113
 20
418.204
 11
34.887
 21
418.204
  0
LINE
  8
0
 10
49.887
 20
418.204
 11
49.6627
 21
418.232
  0
LINE
  8
0
 10
49.6627
 20
418.232
 11
49.4438
 21
418.288
  0
LINE
  8
0
 10
49.4438
 20
418.288
 11
49.2336
 21
418.371
  0
LINE
  8
0
 10
49.2336
 20
418.371
 11
49.0355
 21
418.48
  0
LINE
  8
0
 10
49.0355
 20
418.48
 11
48.8526
 21
418.613
  0
LINE
  8
0
 10
48.8526
 20
418.613
 11
48.6879
 21
418.768
  0
LINE
  8
0
 10
48.6879
 20
418.768
 11
48.5438
 21
418.942
  0
LINE
  8
0
 10
48.5438
 20
418.942
 11
48.4226
 21
419.133
  0
LINE
  8
0
 10
48.4226
 20
419.133
 11
48.3264
 21
419.337
  0
LINE
  8
0
 10
48.3264
 20
419.337
 11
48.2565
 21
419.552
  0
LINE
  8
0
 10
48.2565
 20
419.552
 11
48.2142
 21
419.774
  0
LINE
  8
0
 10
48.2142
 20
419.774
 11
48.2
 21
420
  0
LINE
  8
0
 10
48.2
 20
420
 11
48.2142
 21
420.226
  0
LINE
  8
0
 10
48.2142
 20
420.226
 11
48.2565
 21
420.448
  0
LINE
  8
0
 10
48.2565
 20
420.448
 11
48.3264
 21
420.663
  0
LINE
  8
0
 10
48.3264
 20
420.663
 11
48.4226
 21
420.867
  0
LINE
  8
0
 10
48.4226
 20
420.867
 11
48.5438
 21
421.058
  0
LINE
  8
0
 10
48.5438
 20
421.058
 11
48.6879
 21
421.232
  0
LINE
  8
0
 10
48.6879
 20
421.232
 11
48.8526
 21
421.387
  0
LINE
  8
0
 10
48.8526
 20
421.387
 11
49.0355
 21
421.52
  0
LINE
  8
0
 10
49.0355
 20
421.52
 11
49.2336
 21
421.629
  0
LINE
  8
0
 10
49.2336
 20
421.629
 11
49.4438
 21
421.712
  0
LINE
  8
0
 10
49.4438
 20
421.712
 11
49.6627
 21
421.768
  0
LINE
  8
0
 10
49.6627
 20
421.768
 11
49.887
 21
421.796
  0
LINE
  8
0
 10
49.887
 20
421.796
 11
50.113
 21
421.796
  0
LINE
  8
0
 10
50.113
 20
421.796
 11
50.3373
 21
421.768
  0
LINE
  8
0
 10
50.3373
 20
421.768
 11
50.5562
 21
421.712
  0
LINE
  8
0
 10
50.5562
 20
421.712
 11
50.7664
 21
421.629
  0
LINE
  8
0
 10
50.7664
 20
421.629
 11
50.9645
 21
421.52
  0
LINE
  8
0
 10
50.9645
 20
421.52
 11
51.1474
 21
421.387
  0
LINE
  8
0
 10
51.1474
 20
421.387
 11
51.3121
 21
421.232
  0
LINE
  8
0
 10
51.3121
 20
421.232
 11
51.4562
 21
421.058
  0
LINE
  8
0
 10
51.4562
 20
421.058
 11
51.5773
 21
420.867
  0
LINE
  8
0
 10
51.5773
 20
420.867
 11
51.6736
 21
420.663
  0
LINE
  8
0
 10
51.6736
 20
420.663
 11
51.7434
 21
420.448
  0
LINE
  8
0
 10
51.7434
 20
420.448
 11
51.7858
 21
420.226
  0
LINE
  8
0
 10
51.7858
 20
420.226
 11
51.8
 21
420
  0
LINE
  8
0
 10
51.8
 20
420
 11
51.7858
 21
419.774
  0
LINE
  8
0
 10
51.7858
 20
419.774
 11
51.7434
 21
419.552
  0
LINE
  8
0
 10
51.7434
 20
419.552
 11
51.6736
 21
419.337
  0
LINE
  8
0
 10
51.6736
 20
419.337
 11
51.5773
 21
419.133
  0
LINE
  8
0
 10
51.5773
 20
419.133
 11
51.4562
 21
418.942
  0
LINE
  8
0
 10
51.4562
 20
418.942
 11
51.3121
 21
418.768
  0
LINE
  8
0
 10
51.3121
 20
418.768
 11
51.1474
 21
418.613
  0
LINE
  8
0
 10
51.1474
 20
418.613
 11
50.9645
 21
418.48
  0
LINE
  8
0
 10
50.9645
 20
418.48
 11
50.7664
 21
418.371
  0
LINE
  8
0
 10
50.7664
 20
418.371
 11
50.5562
 21
418.288
  0
LINE
  8
0
 10
50.5562
 20
418.288
 11
50.3373
 21
418.232
  0
LINE
  8
0
 10
50.3373
 20
418.232
 11
50.113
 21
418.204
  0
LINE
  8
0
 10
50.113
 20
418.204
 11
49.887
 21
418.204
  0
LINE
  8
0
 10
60
 20
392.967
 11
10
 21
392.967
  0
LINE
  8
0
 10
10
 20
392.967
 11
10
 21
389.637
  0
LINE
  8
0
 10
10
 20
389.637
 11
0
 21
389.637
  0
LINE
  8
0
 10
0
 20
389.637
 11
0
 21
382.363
  0
LINE
  8
0
 10
0
 20
382.363
 11
10
 21
382.363
  0
LINE
  8
0
 10
10
 20
382.363
 11
10
 21
379.033
  0
LINE
  8
0
 10
10
 20
379.033
 11
60
 21
379.033
  0
LINE
  8
0
 10
60
 20
379.033
 11
60
 21
392.967
  0
LINE
  8
0
 10
48.4133
 20
383.252
 11
46.8265
 21
386
  0
LINE
  8
0
 10
46.8265
 20
386
 11
48.4133
 21
388.748
  0
LINE
  8
0
 10
48.4133
 20
388.748
 11
51.5867
 21
388.748
  0
LINE
  8
0
 10
51.5867
 20
388.748
 11
53.1735
 21
386
  0
LINE
  8
0
 10
53.1735
 20
386
 11
51.5867
 21
383.252
  0
LINE
  8
0
 10
51.5867
 20
383.252
 11
48.4133
 21
383.252
  0
LINE
  8
0
 10
34.887
 20
384.204
 11
34.6627
 21
384.232
  0
LINE
  8
0
 10
34.6627
 20
384.232
 11
34.4438
 21
384.288
  0
LINE
  8
0
 10
34.4438
 20
384.288
 11
34.2336
 21
384.371
  0
LINE
  8
0
 10
34.2336
 20
384.371
 11
34.0355
 21
384.48
  0
LINE
  8
0
 10
34.0355
 20
384.48
 11
33.8526
 21
384.613
  0
LINE
  8
0
 10
33.8526
 20
384.613
 11
33.6879
 21
384.768
  0
LINE
  8
0
 10
33.6879
 20
384.768
 11
33.5438
 21
384.942
  0
LINE
  8
0
 10
33.5438
 20
384.942
 11
33.4226
 21
385.133
  0
LINE
  8
0
 10
33.4226
 20
385.133
 11
33.3264
 21
385.337
  0
LINE
  8
0
 10
33.3264
 20
385.337
 11
33.2565
 21
385.552
  0
LINE
  8
0
 10
33.2565
 20
385.552
 11
33.2142
 21
385.774
  0
LINE
  8
0
 10
33.2142
 20
385.774
 11
33.2
 21
386
  0
LINE
  8
0
 10
33.2
 20
386
 11
33.2142
 21
386.226
  0
LINE
  8
0
 10
33.2142
 20
386.226
 11
33.2565
 21
386.448
  0
LINE
  8
0
 10
33.2565
 20
386.448
 11
33.3264
 21
386.663
  0
LINE
  8
0
 10
33.3264
 20
386.663
 11
33.4226
 21
386.867
  0
LINE
  8
0
 10
33.4226
 20
386.867
 11
33.5438
 21
387.058
  0
LINE
  8
0
 10
33.5438
 20
387.058
 11
33.6879
 21
387.232
  0
LINE
  8
0
 10
33.6879
 20
387.232
 11
33.8526
 21
387.387
  0
LINE
  8
0
 10
33.8526
 20
387.387
 11
34.0355
 21
387.52
  0
LINE
  8
0
 10
34.0355
 20
387.52
 11
34.2336
 21
387.629
  0
LINE
  8
0
 10
34.2336
 20
387.629
 11
34.4438
 21
387.712
  0
LINE
  8
0
 10
34.4438
 20
387.712
 11
34.6627
 21
387.768
  0
LINE
  8
0
 10
34.6627
 20
387.768
 11
34.887
 21
387.796
  0
LINE
  8
0
 10
34.887
 20
387.796
 11
35.113
 21
387.796
  0
LINE
  8
0
 10
35.113
 20
387.796
 11
35.3373
 21
387.768
  0
LINE
  8
0
 10
35.3373
 20
387.768
 11
35.5562
 21
387.712
  0
LINE
  8
0
 10
35.5562
 20
387.712
 11
35.7664
 21
387.629
  0
LINE
  8
0
 10
35.7664
 20
387.629
 11
35.9645
 21
387.52
  0
LINE
  8
0
 10
35.9645
 20
387.52
 11
36.1474
 21
387.387
  0
LINE
  8
0
 10
36.1474
 20
387.387
 11
36.3121
 21
387.232
  0
LINE
  8
0
 10
36.3121
 20
387.232
 11
36.4562
 21
387.058
  0
LINE
  8
0
 10
36.4562
 20
387.058
 11
36.5773
 21
386.867
  0
LINE
  8
0
 10
36.5773
 20
386.867
 11
36.6736
 21
386.663
  0
LINE
  8
0
 10
36.6736
 20
386.663
 11
36.7434
 21
386.448
  0
LINE
  8
0
 10
36.7434
 20
386.448
 11
36.7858
 21
386.226
  0
LINE
  8
0
 10
36.7858
 20
386.226
 11
36.8
 21
386
  0
LINE
  8
0
 10
36.8
 20
386
 11
36.7858
 21
385.774
  0
LINE
  8
0
 10
36.7858
 20
385.774
 11
36.7434
 21
385.552
  0
LINE
  8
0
 10
36.7434
 20
385.552
 11
36.6736
 21
385.337
  0
LINE
  8
0
 10
36.6736
 20
385.337
 11
36.5773
 21
385.133
  0
LINE
  8
0
 10
36.5773
 20
385.133
 11
36.4562
 21
384.942
  0
LINE
  8
0
 10
36.4562
 20
384.942
 11
36.3121
 21
384.768
  0
LINE
  8
0
 10
36.3121
 20
384.768
 11
36.1474
 21
384.613
  0
LINE
  8
0
 10
36.1474
 20
384.613
 11
35.9645
 21
384.48
  0
LINE
  8
0
 10
35.9645
 20
384.48
 11
35.7664
 21
384.371
  0
LINE
  8
0
 10
35.7664
 20
384.371
 11
35.5562
 21
384.288
  0
LINE
  8
0
 10
35.5562
 20
384.288
 11
35.3373
 21
384.232
  0
LINE
  8
0
 10
35.3373
 20
384.232
 11
35.113
 21
384.204
  0
LINE
  8
0
 10
35.113
 20
384.204
 11
34.887
 21
384.204
  0
LINE
  8
0
 10
60
 20
342.967
 11
10
 21
342.967
  0
LINE
  8
0
 10
10
 20
342.967
 11
10
 21
339.637
  0
LINE
  8
0
 10
10
 20
339.637
 11
0
 21
339.637
  0
LINE
  8
0
 10
0
 20
339.637
 11
0
 21
332.363
  0
LINE
  8
0
 10
0
 20
332.363
 11
10
 21
332.363
  0
LINE
  8
0
 10
10
 20
332.363
 11
10
 21
329.033
  0
LINE
  8
0
 10
10
 20
329.033
 11
60
 21
329.033
  0
LINE
  8
0
 10
60
 20
329.033
 11
60
 21
342.967
  0
LINE
  8
0
 10
33.4133
 20
333.252
 11
31.8265
 21
336
  0
LINE
  8
0
 10
31.8265
 20
336
 11
33.4133
 21
338.748
  0
LINE
  8
0
 10
33.4133
 20
338.748
 11
36.5867
 21
338.748
  0
LINE
  8
0
 10
36.5867
 20
338.748
 11
38.1735
 21
336
  0
LINE
  8
0
 10
38.1735
 20
336
 11
36.5867
 21
333.252
  0
LINE
  8
0
 10
36.5867
 20
333.252
 11
33.4133
 21
333.252
  0
LINE
  8
0
 10
49.887
 20
334.204
 11
49.6627
 21
334.232
  0
LINE
  8
0
 10
49.6627
 20
334.232
 11
49.4438
 21
334.288
  0
LINE
  8
0
 10
49.4438
 20
334.288
 11
49.2336
 21
334.371
  0
LINE
  8
0
 10
49.2336
 20
334.371
 11
49.0355
 21
334.48
  0
LINE
  8
0
 10
49.0355
 20
334.48
 11
48.8526
 21
334.613
  0
LINE
  8
0
 10
48.8526
 20
334.613
 11
48.6879
 21
334.768
  0
LINE
  8
0
 10
48.6879
 20
334.768
 11
48.5438
 21
334.942
  0
LINE
  8
0
 10
48.5438
 20
334.942
 11
48.4226
 21
335.133
  0
LINE
  8
0
 10
48.4226
 20
335.133
 11
48.3264
 21
335.337
  0
LINE
  8
0
 10
48.3264
 20
335.337
 11
48.2565
 21
335.552
  0
LINE
  8
0
 10
48.2565
 20
335.552
 11
48.2142
 21
335.774
  0
LINE
  8
0
 10
48.2142
 20
335.774
 11
48.2
 21
336
  0
LINE
  8
0
 10
48.2
 20
336
 11
48.2142
 21
336.226
  0
LINE
  8
0
 10
48.2142
 20
336.226
 11
48.2565
 21
336.448
  0
LINE
  8
0
 10
48.2565
 20
336.448
 11
48.3264
 21
336.663
  0
LINE
  8
0
 10
48.3264
 20
336.663
 11
48.4226
 21
336.867
  0
LINE
  8
0
 10
48.4226
 20
336.867
 11
48.5438
 21
337.058
  0
LINE
  8
0
 10
48.5438
 20
337.058
 11
48.6879
 21
337.232
  0
LINE
  8
0
 10
48.6879
 20
337.232
 11
48.8526
 21
337.387
  0
LINE
  8
0
 10
48.8526
 20
337.387
 11
49.0355
 21
337.52
  0
LINE
  8
0
 10
49.0355
 20
337.52
 11
49.2336
 21
337.629
  0
LINE
  8
0
 10
49.2336
 20
337.629
 11
49.4438
 21
337.712
  0
LINE
  8
0
 10
49.4438
 20
337.712
 11
49.6627
 21
337.768
  0
LINE
  8
0
 10
49.6627
 20
337.768
 11
49.887
 21
337.796
  0
LINE
  8
0
 10
49.887
 20
337.796
 11
50.113
 21
337.796
  0
LINE
  8
0
 10
50.113
 20
337.796
 11
50.3373
 21
337.768
  0
LINE
  8
0
 10
50.3373
 20
337.768
 11
50.5562
 21
337.712
  0
LINE
  8
0
 10
50.5562
 20
337.712
 11
50.7664
 21
337.629
  0
LINE
  8
0
 10
50.7664
 20
337.629
 11
50.9645
 21
337.52
  0
LINE
  8
0
 10
50.9645
 20
337.52
 11
51.1474
 21
337.387
  0
LINE
  8
0
 10
51.1474
 20
337.387
 11
51.3121
 21
337.232
  0
LINE
  8
0
 10
51.3121
 20
337.232
 11
51.4562
 21
337.058
  0
LINE
  8
0
 10
51.4562
 20
337.058
 11
51.5773
 21
336.867
  0
LINE
  8
0
 10
51.5773
 20
336.867
 11
51.6736
 21
336.663
  0
LINE
  8
0
 10
51.6736
 20
336.663
 11
51.7434
 21
336.448
  0
LINE
  8
0
 10
51.7434
 20
336.448
 11
51.7858
 21
336.226
  0
LINE
  8
0
 10
51.7858
 20
336.226
 11
51.8
 21
336
  0
LINE
  8
0
 10
51.8
 20
336
 11
51.7858
 21
335.774
  0
LINE
  8
0
 10
51.7858
 20
335.774
 11
51.7434
 21
335.552
  0
LINE
  8
0
 10
51.7434
 20
335.552
 11
51.6736
 21
335.337
  0
LINE
  8
0
 10
51.6736
 20
335.337
 11
51.5773
 21
335.133
  0
LINE
  8
0
 10
51.5773
 20
335.133
 11
51.4562
 21
334.942
  0
LINE
  8
0
 10
51.4562
 20
334.942
 11
51.3121
 21
334.768
  0
LINE
  8
0
 10
51.3121
 20
334.768
 11
51.1474
 21
334.613
  0
LINE
  8
0
 10
51.1474
 20
334.613
 11
50.9645
 21
334.48
  0
LINE
  8
0
 10
50.9645
 20
334.48
 11
50.7664
 21
334.371
  0
LINE
  8
0
 10
50.7664
 20
334.371
 11
50.5562
 21
334.288
  0
LINE
  8
0
 10
50.5562
 20
334.288
 11
50.3373
 21
334.232
  0
LINE
  8
0
 10
50.3373
 20
334.232
 11
50.113
 21
334.204
  0
LINE
  8
0
 10
50.113
 20
334.204
 11
49.887
 21
334.204
  0
LINE
  8
0
 10
20.2579
 20
335.28
 11
20.2357
 21
335.495
  0
LINE
  8
0
 10
20.2357
 20
335.495
 11
20.2182
 21
336
  0
LINE
  8
0
 10
20.2182
 20
336
 11
20.2357
 21
336.505
  0
LINE
  8
0
 10
20.2357
 20
336.505
 11
20.2579
 21
336.72
  0
LINE
  8
0
 10
20.2579
 20
336.72
 11
28.5
 21
336.72
  0
LINE
  8
0
 10
28.5
 20
336.72
 11
28.5
 21
335.28
  0
LINE
  8
0
 10
28.5
 20
335.28
 11
20.2579
 21
335.28
  0
LINE
  8
0
 10
2
 20
335.28
 11
2
 21
336.72
  0
LINE
  8
0
 10
2
 20
336.72
 11
13.7421
 21
336.72
  0
LINE
  8
0
 10
13.7421
 20
336.72
 11
13.7643
 21
336.505
  0
LINE
  8
0
 10
13.7643
 20
336.505
 11
13.7818
 21
336
  0
LINE
  8
0
 10
13.7818
 20
336
 11
13.7643
 21
335.495
  0
LINE
  8
0
 10
13.7643
 20
335.495
 11
13.7421
 21
335.28
  0
LINE
  8
0
 10
13.7421
 20
335.28
 11
2
 21
335.28
  0
LINE
  8
0
 10
60
 20
306.028
 11
10
 21
306.028
  0
LINE
  8
0
 10
10
 20
306.028
 11
10
 21
297.972
  0
LINE
  8
0
 10
10
 20
297.972
 11
60
 21
297.972
  0
LINE
  8
0
 10
60
 20
297.972
 11
60
 21
306.028
  0
LINE
  8
0
 10
48.4133
 20
299.252
 11
46.8265
 21
302
  0
LINE
  8
0
 10
46.8265
 20
302
 11
48.4133
 21
304.748
  0
LINE
  8
0
 10
48.4133
 20
304.748
 11
51.5867
 21
304.748
  0
LINE
  8
0
 10
51.5867
 20
304.748
 11
53.1735
 21
302
  0
LINE
  8
0
 10
53.1735
 20
302
 11
51.5867
 21
299.252
  0
LINE
  8
0
 10
51.5867
 20
299.252
 11
48.4133
 21
299.252
  0
LINE
  8
0
 10
34.8493
 20
299.605
 11
34.5503
 21
299.643
  0
LINE
  8
0
 10
34.5503
 20
299.643
 11
34.2584
 21
299.717
  0
LINE
  8
0
 10
34.2584
 20
299.717
 11
33.9781
 21
299.828
  0
LINE
  8
0
 10
33.9781
 20
299.828
 11
33.714
 21
299.974
  0
LINE
  8
0
 10
33.714
 20
299.974
 11
33.4702
 21
300.151
  0
LINE
  8
0
 10
33.4702
 20
300.151
 11
33.2505
 21
300.357
  0
LINE
  8
0
 10
33.2505
 20
300.357
 11
33.0583
 21
300.589
  0
LINE
  8
0
 10
33.0583
 20
300.589
 11
32.8969
 21
300.844
  0
LINE
  8
0
 10
32.8969
 20
300.844
 11
32.7685
 21
301.117
  0
LINE
  8
0
 10
32.7685
 20
301.117
 11
32.6754
 21
301.403
  0
LINE
  8
0
 10
32.6754
 20
301.403
 11
32.6189
 21
301.699
  0
LINE
  8
0
 10
32.6189
 20
301.699
 11
32.6
 21
302
  0
LINE
  8
0
 10
32.6
 20
302
 11
32.6189
 21
302.301
  0
LINE
  8
0
 10
32.6189
 20
302.301
 11
32.6754
 21
302.597
  0
LINE
  8
0
 10
32.6754
 20
302.597
 11
32.7685
 21
302.883
  0
LINE
  8
0
 10
32.7685
 20
302.883
 11
32.8969
 21
303.156
  0
LINE
  8
0
 10
32.8969
 20
303.156
 11
33.0583
 21
303.411
  0
LINE
  8
0
 10
33.0583
 20
303.411
 11
33.2505
 21
303.643
  0
LINE
  8
0
 10
33.2505
 20
303.643
 11
33.4702
 21
303.849
  0
LINE
  8
0
 10
33.4702
 20
303.849
 11
33.714
 21
304.026
  0
LINE
  8
0
 10
33.714
 20
304.026
 11
33.9781
 21
304.172
  0
LINE
  8
0
 10
33.9781
 20
304.172
 11
34.2584
 21
304.283
  0
LINE
  8
0
 10
34.2584
 20
304.283
 11
34.5503
 21
304.357
  0
LINE
  8
0
 10
34.5503
 20
304.357
 11
34.8493
 21
304.395
  0
LINE
  8
0
 10
34.8493
 20
304.395
 11
35.1507
 21
304.395
  0
LINE
  8
0
 10
35.1507
 20
304.395
 11
35.4497
 21
304.357
  0
LINE
  8
0
 10
35.4497
 20
304.357
 11
35.7416
 21
304.283
  0
LINE
  8
0
 10
35.7416
 20
304.283
 11
36.0219
 21
304.172
  0
LINE
  8
0
 10
36.0219
 20
304.172
 11
36.286
 21
304.026
  0
LINE
  8
0
 10
36.286
 20
304.026
 11
36.5298
 21
303.849
  0
LINE
  8
0
 10
36.5298
 20
303.849
 11
36.7495
 21
303.643
  0
LINE
  8
0
 10
36.7495
 20
303.643
 11
36.9416
 21
303.411
  0
LINE
  8
0
 10
36.9416
 20
303.411
 11
37.1031
 21
303.156
  0
LINE
  8
0
 10
37.1031
 20
303.156
 11
37.2315
 21
302.883
  0
LINE
  8
0
 10
37.2315
 20
302.883
 11
37.3246
 21
302.597
  0
LINE
  8
0
 10
37.3246
 20
302.597
 11
37.3811
 21
302.301
  0
LINE
  8
0
 10
37.3811
 20
302.301
 11
37.4
 21
302
  0
LINE
  8
0
 10
37.4
 20
302
 11
37.3811
 21
301.699
  0
LINE
  8
0
 10
37.3811
 20
301.699
 11
37.3246
 21
301.403
  0
LINE
  8
0
 10
37.3246
 20
301.403
 11
37.2315
 21
301.117
  0
LINE
  8
0
 10
37.2315
 20
301.117
 11
37.1031
 21
300.844
  0
LINE
  8
0
 10
37.1031
 20
300.844
 11
36.9416
 21
300.589
  0
LINE
  8
0
 10
36.9416
 20
300.589
 11
36.7495
 21
300.357
  0
LINE
  8
0
 10
36.7495
 20
300.357
 11
36.5298
 21
300.151
  0
LINE
  8
0
 10
36.5298
 20
300.151
 11
36.286
 21
299.974
  0
LINE
  8
0
 10
36.286
 20
299.974
 11
36.0219
 21
299.828
  0
LINE
  8
0
 10
36.0219
 20
299.828
 11
35.7416
 21
299.717
  0
LINE
  8
0
 10
35.7416
 20
299.717
 11
35.4497
 21
299.643
  0
LINE
  8
0
 10
35.4497
 20
299.643
 11
35.1507
 21
299.605
  0
LINE
  8
0
 10
35.1507
 20
299.605
 11
34.8493
 21
299.605
  0
LINE
  8
0
 10
60
 20
256.028
 11
10
 21
256.028
  0
LINE
  8
0
 10
10
 20
256.028
 11
10
 21
247.972
  0
LINE
  8
0
 10
10
 20
247.972
 11
60
 21
247.972
  0
LINE
  8
0
 10
60
 20
247.972
 11
60
 21
256.028
  0
LINE
  8
0
 10
33.4133
 20
249.252
 11
31.8265
 21
252
  0
LINE
  8
0
 10
31.8265
 20
252
 11
33.4133
 21
254.748
  0
LINE
  8
0
 10
33.4133
 20
254.748
 11
36.5867
 21
254.748
  0
LINE
  8
0
 10
36.5867
 20
254.748
 11
38.1735
 21
252
  0
LINE
  8
0
 10
38.1735
 20
252
 11
36.5867
 21
249.252
  0
LINE
  8
0
 10
36.5867
 20
249.252
 11
33.4133
 21
249.252
  0
LINE
  8
0
 10
49.8493
 20
249.605
 11
49.5503
 21
249.643
  0
LINE
  8
0
 10
49.5503
 20
249.643
 11
49.2584
 21
249.717
  0
LINE
  8
0
 10
49.2584
 20
249.717
 11
48.9781
 21
249.828
  0
LINE
  8
0
 10
48.9781
 20
249.828
 11
48.714
 21
249.974
  0
LINE
  8
0
 10
48.714
 20
249.974
 11
48.4702
 21
250.151
  0
LINE
  8
0
 10
48.4702
 20
250.151
 11
48.2505
 21
250.357
  0
LINE
  8
0
 10
48.2505
 20
250.357
 11
48.0583
 21
250.589
  0
LINE
  8
0
 10
48.0583
 20
250.589
 11
47.8969
 21
250.844
  0
LINE
  8
0
 10
47.8969
 20
250.844
 11
47.7685
 21
251.117
  0
LINE
  8
0
 10
47.7685
 20
251.117
 11
47.6754
 21
251.403
  0
LINE
  8
0
 10
47.6754
 20
251.403
 11
47.6189
 21
251.699
  0
LINE
  8
0
 10
47.6189
 20
251.699
 11
47.6
 21
252
  0
LINE
  8
0
 10
47.6
 20
252
 11
47.6189
 21
252.301
  0
LINE
  8
0
 10
47.6189
 20
252.301
 11
47.6754
 21
252.597
  0
LINE
  8
0
 10
47.6754
 20
252.597
 11
47.7685
 21
252.883
  0
LINE
  8
0
 10
47.7685
 20
252.883
 11
47.8969
 21
253.156
  0
LINE
  8
0
 10
47.8969
 20
253.156
 11
48.0583
 21
253.411
  0
LINE
  8
0
 10
48.0583
 20
253.411
 11
48.2505
 21
253.643
  0
LINE
  8
0
 10
48.2505
 20
253.643
 11
48.4702
 21
253.849
  0
LINE
  8
0
 10
48.4702
 20
253.849
 11
48.714
 21
254.026
  0
LINE
  8
0
 10
48.714
 20
254.026
 11
48.9781
 21
254.172
  0
LINE
  8
0
 10
48.9781
 20
254.172
 11
49.2584
 21
254.283
  0
LINE
  8
0
 10
49.2584
 20
254.283
 11
49.5503
 21
254.357
  0
LINE
  8
0
 10
49.5503
 20
254.357
 11
49.8493
 21
254.395
  0
LINE
  8
0
 10
49.8493
 20
254.395
 11
50.1507
 21
254.395
  0
LINE
  8
0
 10
50.1507
 20
254.395
 11
50.4497
 21
254.357
  0
LINE
  8
0
 10
50.4497
 20
254.357
 11
50.7416
 21
254.283
  0
LINE
  8
0
 10
50.7416
 20
254.283
 11
51.0219
 21
254.172
  0
LINE
  8
0
 10
51.0219
 20
254.172
 11
51.286
 21
254.026
  0
LINE
  8
0
 10
51.286
 20
254.026
 11
51.5298
 21
253.849
  0
LINE
  8
0
 10
51.5298
 20
253.849
 11
51.7495
 21
253.643
  0
LINE
  8
0
 10
51.7495
 20
253.643
 11
51.9416
 21
253.411
  0
LINE
  8
0
 10
51.9416
 20
253.411
 11
52.1031
 21
253.156
  0
LINE
  8
0
 10
52.1031
 20
253.156
 11
52.2315
 21
252.883
  0
LINE
  8
0
 10
52.2315
 20
252.883
 11
52.3246
 21
252.597
  0
LINE
  8
0
 10
52.3246
 20
252.597
 11
52.3811
 21
252.301
  0
LINE
  8
0
 10
52.3811
 20
252.301
 11
52.4
 21
252
  0
LINE
  8
0
 10
52.4
 20
252
 11
52.3811
 21
251.699
  0
LINE
  8
0
 10
52.3811
 20
251.699
 11
52.3246
 21
251.403
  0
LINE
  8
0
 10
52.3246
 20
251.403
 11
52.2315
 21
251.117
  0
LINE
  8
0
 10
52.2315
 20
251.117
 11
52.1031
 21
250.844
  0
LINE
  8
0
 10
52.1031
 20
250.844
 11
51.9416
 21
250.589
  0
LINE
  8
0
 10
51.9416
 20
250.589
 11
51.7495
 21
250.357
  0
LINE
  8
0
 10
51.7495
 20
250.357
 11
51.5298
 21
250.151
  0
LINE
  8
0
 10
51.5298
 20
250.151
 11
51.286
 21
249.974
  0
LINE
  8
0
 10
51.286
 20
249.974
 11
51.0219
 21
249.828
  0
LINE
  8
0
 10
51.0219
 20
249.828
 11
50.7416
 21
249.717
  0
LINE
  8
0
 10
50.7416
 20
249.717
 11
50.4497
 21
249.643
  0
LINE
  8
0
 10
50.4497
 20
249.643
 11
50.1507
 21
249.605
  0
LINE
  8
0
 10
50.1507
 20
249.605
 11
49.8493
 21
249.605
  0
ENDSEC
  0
SECTION
  2
OBJECTS
  0
DICTIONARY
  0
ENDSEC
  0
EOF
